<svg viewBox="0 0 315.6 135.2" xmlns="http://www.w3.org/2000/svg"><g fill="#08ffe1"><path d="m90.3 7.7a24.2 24.2 0 0 1 5.5 6.8c-.1.4 0 .9-.7.8l-.2-.3c-.5-.6-.9-1.3-1.9-.8a.7.7 0 0 1 -.9-.2c-.3-.4-.1-.7.1-1s.5-.5.6-.8a3.4 3.4 0 0 0 -2-.1 3.7 3.7 0 0 1 -1.8.2h-34.4a5.4 5.4 0 0 1 -2.8-.5c-1.2-.6-2.2.4-3.3.4s-.4.7-.4 1-.2 1-.9.9-.5-.8-.7.1a.7.7 0 0 1 -.7-.2c-.1-.2-.1-.3.1-.5a24.5 24.5 0 0 1 7.8-8.2 7.5 7.5 0 0 0 3.4-2.1c1 .1 1.6-.8 2.5-.8s2.3-1.2 3.6-1.2a3.5 3.5 0 0 0 1.4-.3h.4l3.9-.5h.5c2.7-.2 5.5.7 8.2.8h.4a17.2 17.2 0 0 0 2.6 1c1.3.5 2.8.5 3.7 1.7s1.6.8 2.4 1.3 2.3 1.8 3.6 2.5z"/><path d="m56.9 103.1a14.1 14.1 0 0 1 -3.6-6.8 17.7 17.7 0 0 1 3.4-15.8l.4-.4c1.1-.4 1.5-1.8 2.6-2.3s3.8-2.3 6.2-2.9 4.6-.3 6.9-.6a3.4 3.4 0 0 1 3.4 1.9c-.2-.4-.8-.7-.4-1.2s.7 0 1 .1 2.7.9 3.6 2.2l.3.3c1.8.6 3 2.1 4.3 3.3a16.9 16.9 0 0 1 3.2 15h-.4a6.2 6.2 0 0 1 -.4-3.3 5.3 5.3 0 0 0 -.4-3.7 1.2 1.2 0 0 1 -.2-1c.1-.4-.2-.4-.3-.6s-.2.3-.4.2a1.2 1.2 0 0 1 -1.1.4c-6.9 0-13.8.1-20.6-.1a20.3 20.3 0 0 0 -5.5 0 4.5 4.5 0 0 1 -3-.4c-.9-.5-1.4-.1-1.3.9a14.5 14.5 0 0 1 -.5 3 30.5 30.5 0 0 0 .2 5.2c0 .7.5 1.2.9 1.8a17.6 17.6 0 0 0 1.7 3.7.9.9 0 0 1 0 1.1z"/><path d="m287.9 88.3c.9-.7 1.9-.3 2.9-.3s1.3-.3 1.2-1.3v-4.8c0-.7.2-1 1-1h5.8c.7 0 1 .3.9 1s.1 3.1 0 4.7.4 1.5 1.4 1.4h2.7c.6 0 .9.2.9.9v3.8c0 .6-.2.9-.9.9h-3c-.7 0-1.1.2-1.1.9v13.9a2.6 2.6 0 0 0 1.3 2.4 2.4 2.4 0 0 0 2.3.4c.9-.3 1.4.2 1.4 1.1v2.6c0 1.7 0 1.8-1.7 2a17.3 17.3 0 0 1 -6-.1 6.7 6.7 0 0 1 -4.7-6.3c0-5.2.1-10.4 0-15.5 0-1.4-.1-1.6-1.4-1.6-3 0-3 0-3-2.9z"/><path d="m46.9 13.8c.6.3.8.1.8-.5s.2-2.2 1.8-1.5l.4-.2c.7-.9 1.5-.5 2.2 0a3 3 0 0 0 1.6.3h36c.6 0 1.2.1 1.7-.4s.5-.4.7 0 .8.4 1.5-.2a3 3 0 0 1 -1 1.8c-.2.2-.6.5-.3.8s.7.2 1-.1l.7-.9c.1 1.1 1.2 1.2 1.2 2.2s-.1.2-.1.4v-.2l.6-.8a19.3 19.3 0 0 1 3 5.5c-.5.8-1 .6-1.4 0s-.5-1-1-1.1a4.6 4.6 0 0 0 -2-.3h-8a6.1 6.1 0 0 1 -3-.5 1.5 1.5 0 0 0 -1.3 0 6.5 6.5 0 0 1 -3.1.5h-14.3c-1.1 0-2.1-.1-2.4-1.4a.5.5 0 0 0 -.6-.5.7.7 0 0 0 -.6.4c-.3 1.4-1.2 1.5-2.4 1.5h-13.2c-.6-.2-.9-.5-.5-1.1s-.4.8-.9.9-.4-.7-.2-1a12.8 12.8 0 0 1 1.1-2c.6 0 .4.5.6.8s0-.5-.2-.8.5-.8.6-1.3h.8a.2.2 0 0 1 .2-.3z"/><path d="m56.9 103.1c0-1.1-.9-1.8-1.3-2.8a16.7 16.7 0 0 0 -.5-1.8 2.2 2.2 0 0 1 3.7.5c.2.3.3.6.7.6s.6-.3.8-.7a2 2 0 0 1 1.9-1.3 45.8 45.8 0 0 1 6.4-.1c5.3.3 10.6 0 15.9.1 1.4.1 1.5.2 2 2.1a3.3 3.3 0 0 1 -.7 1.7c-4.4 7.9-15.3 10.8-23.7 6.2a14.2 14.2 0 0 1 -5.2-4.5z"/><path d="m106.2 101.5a46.6 46.6 0 0 1 -2.6-7.1c-.4-1.4-1.1-2.7-1.4-4.2v-.4c0-2.7.1-2.8 2.7-2.8a4.5 4.5 0 0 0 1.6-.3 3.5 3.5 0 0 1 1.7-.2c2.8.8 5.6.4 8.3.5h3.2a3.7 3.7 0 0 0 2.7-.7 1.8 1.8 0 0 1 .8 1.1 1.6 1.6 0 0 0 .5 1.7 2.6 2.6 0 0 1 .5 1.2.9.9 0 0 0 -.3.5c.1-.1.1-.3.3-.4s.2.1.3.3c.7 2.2 1.6 4.3 2.4 6.4s1.3 2 .8 3.2-1.3-.5-1.5-1.2-.4-.7-1-.7c-5.7 0-11.4.2-17.1.1-1.5 0-1.5 0-1.4 1.4a2.2 2.2 0 0 1 -.5 1.6z"/><path d="m92.1 63.4a43.4 43.4 0 0 1 -1.6-4.7c-.8-2.1-.9-4.4-2.2-6.3-.3-.4 0-.9.1-1.3a2.6 2.6 0 0 1 .9-1.4c1.4-1.3 2.2-1.3 3.4.3s1.8 1.3 2.8 0a2.5 2.5 0 0 1 3.4 0c1.2 1.1 2.1 1 3.2-.1s2.4-1.4 3.5.2a3.4 3.4 0 0 1 3.6-.5 3 3 0 0 1 .4 1c0 .7-.6 1.3-.3 2s-.5-1.5.7-.7a14.3 14.3 0 0 1 1.9 4.4 11.3 11.3 0 0 1 .8 2.4 3.2 3.2 0 0 0 -.3.9c0 .4 0 .8-.5.8s-.6-.4-.5-.9a4.3 4.3 0 0 1 -.1-.5 1 1 0 0 1 -.9 1.4c-.8.2-1.2.5-1.3 1.3a1.3 1.3 0 0 1 -1.4.9h-1.7a1.5 1.5 0 0 1 -1.6-1.3c-.1-.6-.5-.8-1.1-.9a8 8 0 0 0 -3.1-.1 16.2 16.2 0 0 1 -4.4.1 1.5 1.5 0 0 0 -1.6 1.2c-.3.7.3 1.8-.9 2.1a.3.3 0 0 0 .1.2 29.3 29.3 0 0 1 2 5.9c.1.2.4.1.6.2a.8.8 0 0 1 .2.5 1.7 1.7 0 0 0 0 1v.5a1.4 1.4 0 0 1 -.5.8c-1.1-2.2-1.7-4.5-2.6-6.8l-.5-1.2a6.6 6.6 0 0 1 -.5-1.4z"/><path d="m29.1 117c-.9 2.9-2 5.8-3.1 8.6-.8-.1-.6-.5-.4-1s1.1-3.2 1.5-4.8.1-.3.1-.5 0-1.8-1.5-1.8h-17.1a1.1 1.1 0 0 1 -1.2-.7 6.5 6.5 0 0 1 1.4-4.2c.3-.4.1-1.1.2-1.6a14.5 14.5 0 0 0 .9-2.2c.1-.5.5-.7 1-1s.4.3.6.3a3.1 3.1 0 0 1 -.4-1.9c.1-.4 0-.8.6-1a1.4 1.4 0 0 0 1.8.8 22.9 22.9 0 0 1 3.7-.1 5.4 5.4 0 0 0 3.3-.5 1.7 1.7 0 0 1 1.4-.1c1.6.8 3.3.6 5 .6h2.9a2.4 2.4 0 0 1 2.4 1.3.5.5 0 0 1 -.1.7c-.6.1-.6.1-.4.6a4.7 4.7 0 0 1 -.8 2.9c-.4.5-.2 1.2-.4 1.7s-.3.1-.5 0-.9 2.6-.9 3.9z"/><path d="m51.4 56.3v.2c-.4.7-.5 1.5-.8 2.1-2 5.8-4 11.5-6.3 17.1l-.2-.3c-.4-1.7.6-3.1 1.1-4.7a2.4 2.4 0 0 0 .8-2.1c0-.3.6-.5.2-1 .7-2.6 2-5.1 2.7-7.8.1-.6.1-1.1-.6-1.4a.9.9 0 0 1 -.6-.8c-.1-1.1-.8-1.2-1.7-1.3s-3.3.7-4.9.6-.4.1-.4.3.1.4.3.5h1.5a1 1 0 0 1 1 1.1c0 .7-.3 1.1-1 1.1s-2.3.5-2.9-1.1-.7-.4-1.1-.4-1.7-.5-1.8-1.9.1-.7-.3-.8-.6.2-.8.4a1.8 1.8 0 0 1 -1.5.7 4 4 0 0 0 -2.6.5.6.6 0 0 1 -.9-.1 1.2 1.2 0 0 1 -.2-1c.1-.4.6-.6.6-.8s-.9 1.3-.3 2.1a.3.3 0 0 1 -.2.6c-1.2.3-1.1 1.2-1.1 2.2s-.1.5-.4.6-.4-.5-.7-1c.2 2.1-1.6 3.3-1.3 5.2a2.2 2.2 0 0 0 -.8 1.5l-.2.5c-.3.3 0 .7-.4 1s-.7-.2-.8-.6a.4.4 0 0 1 .1-.3c1.8-5.2 3.6-10.4 5.7-15.5.3-.3 1.2-.3.7-1.1s0-.5.1-.5.7-1 .9-1.6.6-1.4 1.6-1.3a1.4 1.4 0 0 0 1.1-.6 2.6 2.6 0 0 1 4.5.4 1.7 1.7 0 0 0 1.3.7 23.5 23.5 0 0 0 6.5-.6 2.6 2.6 0 0 0 .9-.5 2.3 2.3 0 0 1 2.8-.9 1.4 1.4 0 0 1 1 1l.3 2.2c0-.5-.2-1.1.5-1.3s.9-.2 1 .5l-.3 2.2c-.2.6-.4.6-.9.6s.1.8 0 1.2-.1.8-.3 1.2-.7 2-.9 3z"/><path d="m163.8 14.5c1.4 3.1 2.4 6.4 3.6 9.5l.8 2.1a9.8 9.8 0 0 0 .5 1.6 72.2 72.2 0 0 1 3.4 9.2c-.3.5-.6.2-.7-.2a3.9 3.9 0 0 0 -.8-1.4l-.3-.3c-.2-.5-.3-1-.5-1.5s-.1-.6-.3-.5-.9-.8-.8-1.5-.1-.4-.3-.4-2.1-.3-3 .4a1.8 1.8 0 0 0 -.7 2.1 26.1 26.1 0 0 1 .6 2.7c.1.4.4.9-.3 1.2s-.9-1.7-1.3-2.6a4.2 4.2 0 0 0 -.8-1.8 10.2 10.2 0 0 1 -1.1-2.9 4.3 4.3 0 0 0 -.6-2.2 5.2 5.2 0 0 1 -.6-1.3c-.2-.7 0-1.6-1-1.9-1.2 3.8-2.3 7.6-3.6 11.3a1.9 1.9 0 0 1 -.7 1.1c-.9-.3-.4-1-.3-1.5a6.4 6.4 0 0 0 .5-3.5c-.1.8-.1.8-.9.7s-2.6.7-4 .3-.3.4-.3.5-1.3 2.1-1.6 3.4-.2.1-.4.1-.2-.8-.1-1.2a14 14 0 0 1 1.3-3.4 11.1 11.1 0 0 0 1.6-3.9c.1-.7.9-1 .8-1.7s.5-1.5.7-2.2a4.8 4.8 0 0 1 .8-2.2c.8-1.2.7-2.6 1.3-3.8a12.4 12.4 0 0 0 1.4-3.8c.3-.2.8.1 1.2-.3h1.7a3.1 3.1 0 0 0 -1.9.2c-.2.1-.6.1-.7-.1s.2-.5.5-.5a6.1 6.1 0 0 1 1.9-.1h3.3c.6-.1 1 .7 1.7.3z"/><path d="m133.6 114.8 7.2 19.3c0 .3.3.6 0 .7s-.9 0-1.3-.3.4-.7.3-1.1a99.5 99.5 0 0 0 -3.9-9.5c-.6-1.9-1.8-3.6-2.1-5.6s-.1-1.8-1.6-1.5-.2-1-.2-1.5-15.8.7-19.1.1c0 .4.2.9-.2 1.1s-.9 0-1-.4c-.8-2.3-1.4-4.7-2.4-6.9a.7.7 0 0 1 .1-.6c.6-1.2.8-2.7 2.3-3.3a1.4 1.4 0 0 1 1.4.2 3.3 3.3 0 0 0 2.2.6h10.6c2 0 2.4-.5 1.9-2.5-.1-.5-.5-1.1.2-1.5a.7.7 0 0 1 .6.2.6.6 0 0 1 .3.6 2 2 0 0 0 .2 1.1.4.4 0 0 1 .1.3v.2c0 .2-.1.4-.1.6s.2-.4.5-.3a.5.5 0 0 1 .2.4 2.9 2.9 0 0 0 .3 1l.2.3a.7.7 0 0 0 .2.6c0 .1.1.2.1.3a1.4 1.4 0 0 0 .3 1.1c.2.2.3.6.6.8a41.3 41.3 0 0 0 2.1 5.5z"/><path d="m11.5 105.4c0 .3.1.7-.3 1s.2 1.1-.2 1.6-1 2.3-1.9 3.1a.2.2 0 0 1 -.3 0c.9-3.3 2.4-6.5 3.5-9.8a50.3 50.3 0 0 1 2.1-5.4c.9-2.2 1.9-4.5 2.6-6.8.4-.2.5-.6.7-1s.2-.9.8-.4a3.1 3.1 0 0 1 0 1.9 4.3 4.3 0 0 1 2.2-.4h14.7c1 0 2.1.2 2.5-1.1s.5-.2.7 0 0 .9.1 1.4-.6.4-.8.8a.4.4 0 0 1 .1.3 2.4 2.4 0 0 0 -.2.8l-.3.4a2.7 2.7 0 0 0 -.8 2.9c0 .4.1.8-.1 1.1s-1.1 1.5-.8 2.6a1.7 1.7 0 0 1 -.1.7 62.1 62.1 0 0 1 -2.3 6.5l-3 7.9c-.1 0-.1-.1-.1-.2h.1c-.6-1.3.8-2.1.9-3.3s.1-.9.1-1.4a1.5 1.5 0 0 1 .6-.5l.2-.5a2.9 2.9 0 0 1 .3-2.7c1.2-1.7 1-3.7 1-5.6s-.4-.7-.8-.8-2 0-3 0a14.1 14.1 0 0 1 -2.1-.1c-1.2-.3-2.1-.6-2.9.7a1.2 1.2 0 0 1 -2-.3c-.6-.9-1.2-.8-2-.6a8.3 8.3 0 0 1 -4.7 0c-.9-.2-1.4.1-1.4.8a8.5 8.5 0 0 1 -1.8 4.6c-.5.5-.4 1.5-1.3 1.8z"/><path d="m128.6 102.5-.3-.3c-.2-.7-1-1.2-.5-2.1s-.8-2.2-1.3-3.3a10 10 0 0 1 -.9-2.6c0-.7-1-1.1-1-2.1a6.1 6.1 0 0 0 -.3-1.7c0-.1-.2-.1-.2-.3s-.6-.6-.5-1-1-.9-.6-1.6l-.5-1c-.4-.5-.9-.8-.8-1.5a1.1 1.1 0 0 0 -.3-.8 15 15 0 0 1 -1.8-4.1 4.2 4.2 0 0 0 -3.9-2.7h-17.3c-.3 0-.8.5-.9-.1s-1.4-3.4-1.5-5.3v-.5c-.2-.3.1-.5 0-.8v-.5c-.4-1.6-.2-1.9 1.4-1.9h14.3a8.4 8.4 0 0 0 2.7-.4 1.1 1.1 0 0 1 1.6 1.3c0 .2-.4.4 0 .5s.6.6.8 1a9.2 9.2 0 0 0 1.6 2.9c1.2 2.4 1.9 5 2.9 7.5l7.5 20.4v.4c.1.3.3.6-.2.6z"/><path d="m7.6 116.7c.1.3.2.5.8.5h18.4c.3-.1.7-.2.8.2s.4.6-.1.8-.2.2-.2.3.1 1.3-.5 3.2-.4 2.5-1.1 3.6.1.3.3.4-.6.8-1 .9l-17.4 6v-.2c.1-.8.9-.7 1.3-1.1a9 9 0 0 1 4.1-1.6c1.2-.2 2.2-.9 3.5-1v-.2l.3-.2c.3-.1.4-.1.3-.3s.1-.7.4-.7c2.1.4 3.8-.8 5.7-1.2-1.1.2-2.2 1.2-3.4 0s-.6-.1-1-.1h-10.9a6.4 6.4 0 0 0 -2 .3 2.8 2.8 0 0 1 -2 .1c-.7-1.2.2-1.5.9-1.8s.2.3.3.4.3-.2.2-.3-.2-1.1-.2-1.7a3.7 3.7 0 0 1 1.1-3.1c.4-.4.2-.7.2-1.1a5 5 0 0 0 .4-1.3c0-.5.1-.9.8-.8z"/><path d="m127.8 100.1c-.1.8.8 1.3.5 2.1s-.2 1.1 0 1.6 0 2.6-2 2.6h-11.4a2.5 2.5 0 0 1 -2-.6 1.1 1.1 0 0 0 -1.9.5c-.2.7-1.7 1.1-.8 2.3s-.2.2-.4.1-.5.1-.3.3 1.1 3.2 1.7 4.8a12.1 12.1 0 0 1 .5 1.8c.2.3 0 1.1.8.8a6.7 6.7 0 0 1 1.2 3.6c0 .5.4.2.5.5a1.4 1.4 0 0 1 .2.6c.1.4-.4 1.2.6 1.2s.1.4 0 .6a.8.8 0 0 1 -.1.4c0 .8 1 1.6.3 2.6a85.3 85.3 0 0 1 -3.2-8.4c-2-5.1-3.8-10.2-5.6-15.3-.1-.2-.1-.5-.2-.7s-.4-2.2.2-3.3.1-.3.5-.3a123.4 123.4 0 0 0 13.6 0c1.8-.1 3.5.4 5.3 0s.7.1.7.6a1.5 1.5 0 0 0 1.3 1.6z"/><path d="m43.8 18.2a1.9 1.9 0 0 0 1.1-1.9c.4.6.1 1.2 0 1.8 4.8.2 9.5.1 14.3.1.9.1 1.5-.2 1.4-1.3s.4-.8 1-.8 1.2 0 1.1.9.4 1.2 1.3 1.2h16.3c1.7-1.2 3.5 0 5.3 0s6.4 0 9.7 0c.4 0 1.1-.3 1.2.5s0 2.3-1.5 2.2a37.7 37.7 0 0 0 -4.7-.2c-4.2.3-8.3-.1-12.4 0l-2.6.2h-1.4a53 53 0 0 1 -6.9.1c-.6-.2-1.3-.5-1.6.5s-.7 1.5-1 2.2-.9.8-1.4.1-.2-.8-.9-.8h-12.2a6.3 6.3 0 0 0 -1.9.3 6.3 6.3 0 0 1 -4.8-1v-.2h-.1c.2.6.2 1.1-.3 1.4s-1.4 2.5-1.8 3.8-.1.5-.2.7-1.4.8-1.1 1.8a9.9 9.9 0 0 1 -1.2 2.8c-.5 0-.5-.5-.5-.9a48.9 48.9 0 0 1 2.6-7.3c.8-2.1 1.9-4.1 2.6-6.3.2-.1.4.1.6.1z"/><path d="m118.4 73.6c-1.6-.7-1.7-2.3-2.3-3.7-.3.2-.2.8-.9.7a10.4 10.4 0 0 1 .4-1.3c.3-.4.2-.9.1-.9s-.8-1-1.3-.2-1 .4-1.6.4h-14.5c-1.2 0-2.4-.2-2.3 1.6l-1 .3a3.9 3.9 0 0 0 -.7-2.9c-.2-.3-1.2-1.2-.3-2s-.2-.4-.4-.6-.4-.9-.6-1.4.6-.4.6-.9a10.5 10.5 0 0 1 .4-1.7 1.1 1.1 0 0 1 1.2-.8 28.2 28.2 0 0 0 5.8-.2c1.1-.2 2.1.3 3.1.2s.6.4.6.8.5 1.4 1.5 1.3h1.1c1 .1 1.6-.2 1.6-1.3s0-.8.5-.8 2.1-.4 1.6-1.9c.9.4.1 1.5 1 2s-.2-1.4.5-1.7l.2.2c0 .3-.1.8.4.3 1.9 4.8 3.7 9.6 5.3 14.5z"/><path d="m53.5 48.4c-.1-.2.1-.4-.2-.5s-.6-.3-.7.2l-.3 1.3c-.1-.9-.7-1.6-.7-2.6s-.4-.8-.9-.7-1.8-.6-2.2.6-.2.8-.6.9a39.9 39.9 0 0 1 -7.7.5 1 1 0 0 1 -1.1-1c0-1-.6-1.1-1.4-1.1h-1.4c-.5 0-.9.1-.9.6s-.6 1-1.3.9-1.4.1-1.4 1.1-.4.9-1.1 1.5-.1.3-.1.4-.3 1-.9 1.2c1-3.1 2.1-6.2 3.4-9.2.1-.2.5.5.6-.2s.3-1 .4-1.5.2-.3.3-.4a3.7 3.7 0 0 0 1.8-3c.8.5.6 1.1.9 1.5a.7.7 0 0 0 .9.6c.4 0 .4-.4.4-.8v-.7a1.3 1.3 0 0 1 1.3-1.3c.9 0 1.3.6 1.4 1.4s.2 1.7 1.9 1.7 2.9-.4 4.3-.1h.7c1.2-1 2.7-.8 4.1-.8a5.3 5.3 0 0 1 3.7 1.7.4.4 0 0 1 -.1.5c-1.3.9-1 2.5-1.5 3.7s-.5 2.4-.9 3.5-.4.5-.7.1z"/><path d="m170.6 35h.2c.5 1.2.5 2.6 1.6 3.6s.1 1.2.2 1.7a3 3 0 0 1 -.2 1c0 .1-.1.2-.1.3s.4 1.6-.3 1.8a3.4 3.4 0 0 1 -2.5-.6 2.9 2.9 0 0 0 -1.1-.6c-1.1 0-1.5.3-1.7 1.4l-.3.3c-2.2-.3-4.4.3-6.6-.5a13.4 13.4 0 0 0 4.4.4 7.5 7.5 0 0 1 2.1.2c2 .4 2.3.7 2.5 2.8a2.8 2.8 0 0 0 .5 1.6 1 1 0 0 1 .2.7c-.1.7.3 1.4-.3 2a44 44 0 0 1 -1.8-5.1 1.2 1.2 0 0 0 -1.4-1h-12c-.9 0-1.1.4-1.4 1.1s-1.3 3.9-2 5.8a3 3 0 0 1 -.1-2.9c.4-1.3 1.1-2.6.7-4.2 0 .8-.5 1-1.1 1h-2c-.4 0-.8-.1-1.1.3s-1.4.6-2-.1.6-1.9.6-3c.4-.2.1-1 .8-1h.1c-.1.2 0 .2 0 .1s.8-2 1.2-3a.2.2 0 0 1 .3 0 1.7 1.7 0 0 1 .4 1.7c1.4.4 2-.6 2.8-1.7s1.3-.6 1.8-1.1a.9.9 0 0 1 1.2.2 2.5 2.5 0 0 0 1.7.6h8.1c.6 0 .7-.5 1-.9a9.8 9.8 0 0 1 2.7-.7 4.1 4.1 0 0 0 2.9-2.2z"/><path d="m315.2 32.4a3.6 3.6 0 0 1 .2 1c.2 1 0 1.5-1.2 1.4h-4.9a.9.9 0 0 1 -1.1-.8c-.8-3.1-2.5-4.4-5.3-4.2s-4.2 1.9-4.7 4.6a28.2 28.2 0 0 0 0 8.2 7.7 7.7 0 0 0 1.8 3.6c.1.2.4.3.4.6s-.8.7-1 .2-1.3-1.3-1.4-2.3-.9-2.2-1.1-3.3a4.1 4.1 0 0 1 0-2.2c.6-1.4.2-2.8.2-4.2a4.5 4.5 0 0 1 -.1-1.1c-1-.2-2 0-3-.3s-.4-.8-.6-1.3 0 0 0 .1.2.4 0 .6a.8.8 0 0 1 -1.1-.2 14.5 14.5 0 0 0 -.8 7.7 1.1 1.1 0 0 1 -.1.8c-.2.2-1 .2-.2.7s.3.5.4.8.7 2.1.5 3.3l-.3.3a10.3 10.3 0 0 1 -1.4-4.5c-.4-4.2-.4-8.4 1.9-12.3 0-.1.2-.2.3-.4a11.6 11.6 0 0 0 1.6-2.1l1.3-1a6.7 6.7 0 0 0 1.8-1.1c1.2-.1 2.1-1 3.3-1a35.5 35.5 0 0 1 7.3.2 5.3 5.3 0 0 1 2.8 1.4 13.9 13.9 0 0 0 1.9 1.5c.6 1.1 1.8 2 1.8 3.4s-1.1.5-1.4-.4a6.1 6.1 0 0 0 -.5-1.2c-.1-.2-.2-.5-.5-.6s-3.3.6-3.5 1a1.6 1.6 0 0 1 -1.2.9c-.1 0-.3 0-.2.2l.4.4.2.2a1.9 1.9 0 0 1 .9 1.1c.7 1.8 1.3 2.3 3.3 2.3a10.8 10.8 0 0 1 1.8 0c-1.1-.1-2.1.1-3.3-.1.3-.7.8-.6 1.2-.7h1.3c1.4 0 1.6-.2 1.2-1.5s-.4-1.1.3-1.5.4 1.3.8 1.8z"/><path d="m247.5 52.9c-1.1.2-1.1-.4-1.1-1.2v-15.5a19.4 19.4 0 0 0 -.2-2.4c-.3-3.3-2.5-4.7-5.6-3.9s-3.4 2-3.4 4.4c0 5.8 0 11.6.1 17.4 0 .9-.3 1.3-1.3 1.3h-5.3c-.1-.4.2-.5.5-.6a18.4 18.4 0 0 1 3.3-.3c.7.1 1.5.6 2.1-.2v-.4c0-1.3-.1-2.5 0-3.7a44.2 44.2 0 0 0 -.2-7.3 40.7 40.7 0 0 0 -.6-6c-.3-1.4-.5-1.5-1.9-1.4h-.1c-2.7.2-2.7.2-3 2.9s-.1 1.2-.8 1.4a41.4 41.4 0 0 1 -.1-6.1 38.5 38.5 0 0 0 .2-4.8c0-1.4.2-1.7 1.6-1.7s2.2-.3 3.5.5c-1.3.5-2.4.3-3.4.8 1-.3 2.1-.3 3.1-.6s1.1-.2 1.4.6a3 3 0 0 0 .4 1c.3.3.6.6 1 .3s2.9-1.6 4.5-2.1l.5-.2c.6-1.2 1.7-1.1 2.7-1a4.6 4.6 0 0 1 3 .6 4.4 4.4 0 0 0 1.9 1 2.5 2.5 0 0 1 1.5 1c1.2 1.3 1.2 1.3 2.4.5a.7.7 0 0 1 .2 1.3 1.9 1.9 0 0 1 -2.1.4 1.1 1.1 0 0 0 -1.1-.1c-2.1.6-4.1 1.2-6.2 0 .6.8.8 1.7 1.6 2.3s0 1.8.2 2.7-.3-.8.3-1.1.3.2.4.4a32.3 32.3 0 0 1 .1 4.4v6.2c0 .8.2 1.7-.6 2.4-.2-2.7-.2-5.4-.2-8.2a14.7 14.7 0 0 1 0 2.1c-.2 3.6.4 7.2.3 10.7-.1 1 .4 1.3 1.3 1.4s2.2-.3 3.2.3a.3.3 0 0 1 0 .4c-1.4.1-2.8-.3-4.1.1z"/><path d="m198.1 43.5a17.7 17.7 0 0 1 .7-12.2 13.9 13.9 0 0 0 1.1-2.1 2.5 2.5 0 0 0 .8-1l1.6-1.6c1.2-.4 2-1.5 3.2-1.9a14.9 14.9 0 0 1 4.1-.8c2.3.1 4.6-.3 6.8.8s2.6 1 3.5 2.1.4.6.8.6a11.7 11.7 0 0 1 3.7 7.2 17.9 17.9 0 0 1 -.3 8.9c-.7-1 .1-2.1-.3-3.1s0-3-.1-4.4-.1-.3-.1-.4-1.2-2.8-1.2-4.4-.8-.7-1.2-1.1a3.2 3.2 0 0 1 -.3-.9c.1.3.1.7.4.9a.5.5 0 0 1 .1.7c-.2.3-.5.1-.7 0s-.4-.5-.6-.7-1.3-.7-1.6.2-1.3 1.1-2 1.4a8.6 8.6 0 0 1 1.3 2.9c.1.4 0 .8-.4.9s-.4-.3-.6-.5l-.6-1a9.3 9.3 0 0 0 -2.2-3 5 5 0 0 0 -6.6.7c-.3.3-.5.8-1.2.7s-.6-.9-.2-1.3c-2.9-.4-5.5.2-6.8 3.4a5.3 5.3 0 0 0 -.3 1.2l-.3.7a2.9 2.9 0 0 0 -.1 1.3v.9a6.6 6.6 0 0 1 .1 1.4c-.1.5-.1.9-.2 1.4s.3 1.5-.3 2.1z"/><path d="m114.6 123.2v-.2c.5-.4.6-.7.1-1a.8.8 0 0 1 -.2-1.2c.3-.5.6 0 .9.2a2.7 2.7 0 0 0 1.5.3h7.6c.4.1.8.3.8.8s-.2.8-.7.9a10.3 10.3 0 0 1 -3.9.6 6.1 6.1 0 0 0 -1.9.1.8.8 0 0 0 -.7 1c.2.6.6.2 1 .1 2.6-.2 5.1-1.4 7.8-.5a3 3 0 0 0 2.3-.1 5 5 0 0 1 3.4 0 5.6 5.6 0 0 0 3.6-.2c.9.8 1 2 1.5 3.1l2.1 5.6c.3.6 1 1.4-.3 1.8a8.8 8.8 0 0 1 -2.3-.7c-.6-.8-1.6-.7-2.4-1s-2.9-.9-4.2-1.6l-1.4-.4-3-1-6.4-2.2a29.6 29.6 0 0 1 -3.1-1.5c-1-.5-1.2-1-.5-1.8a1.1 1.1 0 0 0 .2-.8c-.6-.1-1.4.8-1.8-.3z"/><path d="m247.2 32.7c-.5.4-.1 1.1-.5 1.6.9-2.6-1.2-3.8-2.1-5.5a4.4 4.4 0 0 1 2.5.2 2.8 2.8 0 0 0 2-.1c.8-.4 1.9-.1 2.6-.9s.3.1.3.2 1.4.2 2.1.1.3-.7.2-1.2.3-.3.6-.3 1-.2 1.7 0-.8-.2-1-.4a.4.4 0 0 1 .1-.5c.8-.5 1.5-.9 2.4-.4s1.4.3 1.6-.9a.6.6 0 0 1 .2-.5 12.2 12.2 0 0 1 5.7.1 19.1 19.1 0 0 1 3.2 2.4c1.7 1.9 2 4.3 2.1 6.7s0 5.5 0 8.2 0 6.9.1 10.3c0 .9-.3 1.2-1.1 1.2a50.4 50.4 0 0 0 -5.5 0c-1 0-1.2-.4-1.2-1.3v-17.3c0-2.7-1-4.1-3.1-4.5a5 5 0 0 0 -5.8 2.7 3 3 0 0 0 -.3 1.6c0 5.5 0 11 .1 16.6 0 2.3 0 2.3-2.4 2.1-.1-.1-.2-.1-.1-.2s0-.1.1-.1c.5-.4 1.3-.4 1.5-1.2a4.1 4.1 0 0 0 .2-1.9c-.2-2-.2-3.9-.4-5.9a8.7 8.7 0 0 1 -.1-2.3c0-1.5-.1-3 0-4.5s-.1-2.1 0-3.1a3.8 3.8 0 0 0 -1.1-2.5 1.4 1.4 0 0 0 -1.7-.4 6 6 0 0 1 -2.2.4c-.8.1-.2.8-.5 1.2s-.1.2-.2.3z"/><path d="m75 20.6a3.4 3.4 0 0 1 1.7-.3c2.5 0 4.9-.1 7.3.1s6-.2 9-.1l1.4.2c1.7.3 2.1 0 2.1-1.8.6 0 .8.2.9.8s.5 1 1.3.5a39.5 39.5 0 0 1 2.2 5.7 85.7 85.7 0 0 1 3 8.5c-.2.3.3 1.2-.7.9a.9.9 0 0 1 -.1-.5 1.4 1.4 0 0 1 0-.9c0-.1.2-.2 0-.3h-.3l-.3-.3c-.9-2.6-2.3-5.1-3-7.9-.1-.5-.3-.9-1-.4a3.1 3.1 0 0 1 -1.9.2h-16.1c-.9.1-1.3.7-.8 1.5 1.4 2.3 1.8 4.9 2.6 7.4a3 3 0 0 0 .4 1 9.6 9.6 0 0 1 1.4 4 5.8 5.8 0 0 0 .5 1.4c0 .1.1.2.1.3s.9 1.6 1 2.5v.4a1 1 0 0 1 -.5.8c-1.3-3.7-2.7-7.3-4.1-11s-2.2-6.6-4.3-9.4c-.4-1.2-1.7-1.4-2.3-2.3s-1-.4-.7-.9a.8.8 0 0 1 1.2-.1z"/><path d="m298.4 44.7c-.2 1.1 1.4 1.2 1.3 2.3s.4 0 .5-.2 1.4.4 2.1.7 1.3.3 1.9-.2h.2c2.4-.4 3.9-1.7 3.9-3.9v-.2c2-.3 4.1-.1 6.1-.2s.8.4.7 1.1a9.9 9.9 0 0 1 -3.7 6.7c-3.2 2.8-7 3-11 2.4a9.4 9.4 0 0 1 -5.5-2.6c-.3-.8-1.2-1.1-1.4-2.1s-.1-1.1.7-.9.9-.1 1.2-.6 1.9-1.6 2.9-.4-.1.2.1.1a.1.1 0 0 0 -.1-.1c-.2-.4-.4-.7-.8-.8s-.9 0-.8-.6a.8.8 0 0 1 1.1-.5c.2.1.4-.1.6 0z"/><path d="m177.9 96.4-.5-2.1a11.7 11.7 0 0 1 -.5-2c0-.2-.1-.4-.4-.3a.3.3 0 0 0 -.3.3 5.8 5.8 0 0 1 -.4 1.8c-1 3.7-1.9 7.5-2.8 11.3-.3 0-.1.7-.7.4s.3-2.1.3-3.2a5.6 5.6 0 0 1 .7-2.3c1.1-1.9.2-4 .9-5.4-.1.7-.7 1.2-1.7.9s-1.1-.3-1.6.3a.8.8 0 0 1 -1.2.1 3.1 3.1 0 0 1 -.1-1.9c.1-1.1 1.2-2 .8-3.2 1.2-.8.5-2.2.9-3.2a3.5 3.5 0 0 1 3-2.1 1.5 1.5 0 0 0 1.6-.8 1 1 0 0 1 .9-.6c1.5 0 3-.1 4.2 1a1.1 1.1 0 0 1 .3.9 2.8 2.8 0 0 0 0 1.3c.1 1.1-.3 2.2-.3 3.3s-.6 1.1-1.3 1.2-1.4.3-1.3 1.7.4 1.3.5 2a1.3 1.3 0 0 1 -.4 1.3c-.8.4-.3-.5-.6-.7z"/><path d="m195.2 47.3a21 21 0 0 1 .2 5 .6.6 0 0 1 -.5.6c-2.6 1.3-8.3.5-10.4-1.5l-.3-.6a15.9 15.9 0 0 1 -.9-9.4h.3a5.3 5.3 0 0 1 .7 3.9c0 .3-.4.5-.4.9s.2.1.1.1a.1.1 0 0 1 -.1-.1c0-.4.3-.5.4-.8s.2-.8.6-.8a19.5 19.5 0 0 1 2.3-.6c1.5-.2 1.6-.4 1.6-1.9v-.8a5.6 5.6 0 0 1 .3-2.2.3.3 0 0 1 .4 0c.6 1.4.3 2.8.2 4.2s-.1.8-.1 1.2-.3-.8.3-1 0 1.8.4 2.7 1.3 1 2.1 1.1 1.9-.3 2.8 0z"/><path d="m181.1 87.5c-.3-.2-.3-.4-.3-.7s.4-1 .2-1.1-1-1.1-1.9-.8a5.5 5.5 0 0 1 -1.7-.3c-.6 0-1.2 0-1.4.8s-.7.8-1.3.8a3.2 3.2 0 0 0 -3.3 2.4c-.1.4.5 1-.3 1.3a.5.5 0 0 0 .1.3c.3.5.3.5-.4.7s-.3.3-.2.3 0 1.5-.6 2.2-.3 1.8-.2 2.8a.7.7 0 0 1 -.1.6c-.2.4-.1.8-.3 1.2l-.4 1a5.8 5.8 0 0 0 -.3 1.4 3.6 3.6 0 0 0 -.2 1.1 2.9 2.9 0 0 0 -.2.9 8.4 8.4 0 0 1 -.9 2.5h-.3a.8.8 0 0 1 .1-1c1.8-7.9 3.6-15.7 5.5-23.6v-.4c.5-1.9.5-1.9 2.5-1.9h3.3c1-.1 1.6.2 1.8 1.3s.7 3.1 1 4.6.8 3 .9 4.6a.8.8 0 0 1 -.6.8c-.8-.5-.1-1.3-.5-1.8z"/><path d="m158.7 100.7c-1.1-3.7-1.7-7.4-2.6-11.2s-1.4-6.5-2.2-9.8c-.4-1.7-.3-1.8 1.4-1.8h5.1c.8 0 1.2.2 1.4 1.1.7 4.4 1.6 8.8 2.5 13.2a2.9 2.9 0 0 1 0 1.6c-.9-.3-1-.5-1.1-1.9a2.1 2.1 0 0 0 -.2-1.9c-.5-.6.1-1.6-.8-2s-.3-1-.4-1.5a1.9 1.9 0 0 0 -1.6-1.9c-1.1-.3-2.1-.3-2.7.8l-.5.3c-.5-.4 0-1.1-.4-1.4a2 2 0 0 1 .2.9c0 .7-.4 1.6-.1 2.1a4.3 4.3 0 0 1 .5 1.6c0 .7.3 1.4.3 2.1a8 8 0 0 0 .5 2.1c.2.9.2 2 .4 2.8s.4 2.2.6 3.2.2 1.2-.3 1.6z"/><path d="m224.1 40.5c.3 1-.2 2 0 3a12 12 0 0 1 -5.5 8c-.3-.1-.5-.2-.6-.5s.9-.7 1.2-1a7.9 7.9 0 0 0 1.9-2.6 1.9 1.9 0 0 1 .5-1c.3-.4.9-.7.3-1.2a1 1 0 0 0 -1.4.5c-.5.8-1.2.7-2 .6s-1.5-1-1.1-2.9c-.3 2.4-2 3.7-3.7 5a1.1 1.1 0 0 1 -1 .1c-1.1-.1-2.2.1-3.2-.1a.8.8 0 0 1 -.5-1.2.7.7 0 0 1 .9-.3c2.5.4 4.3-.7 5.8-2.6s.5-1.8 1.3-2.5a4.2 4.2 0 0 0 .6-2.6c.1-1.3.6-1.9 2-2a21 21 0 0 0 2.4-.6 1.1 1.1 0 0 1 1.2.5c-.3-1.2-.2-1.4.6-1.6a21.7 21.7 0 0 1 .2 3.6c0 .5-.2 1 .1 1.4z"/><path d="m284.2 52.9h-5.5c-.3-.6-.9 0-1.2-.2s-.2-.5-.2-.7 0-1.6.2-2.4 0-3 0-4.5a4.5 4.5 0 0 1 .3-1.6c.6-.4.7-.1.8.5a3.8 3.8 0 0 0 .1 1.5 2 2 0 0 1 .1 1.3c-.1-.2.2-.8-.2-1.4a6.9 6.9 0 0 1 .1-2c.8.2.4 1.4 1.3 1.4s.7-1 1.3-1.2 1.5-1 2.1-2.1a17.9 17.9 0 0 1 .1 3.2c0 .1.3-.1.1 0a18.2 18.2 0 0 1 .1-3.3c.9.4.6 1.1.6 1.8s-.2 1.8.5 2.5 0 4.1.1 6.1 0 .9-.7 1.1z"/><path d="m163.5 91.7a2.5 2.5 0 0 0 .8 2.1c.7.2.3 1 .6 1.4.5 2.9 1.2 5.8 1.6 8.7a.9.9 0 0 0 .6.9h.3a.8.8 0 0 1 -.5 1.1c-.5.1-.7-.3-1-.6a2.9 2.9 0 0 1 -.5-1.3 7.1 7.1 0 0 0 -.8-3.4 1 1 0 0 1 .1-1.1.9.9 0 0 1 -.8.6c-.5 0-.4-.6-.5-1s-.4-.6-.8-.7c-2.5-.4-3-.1-3 2.4 0 .6-.3 1.3.6 1.6a.8.8 0 0 1 .3.7c-.3 2.5 1.2 4.7 1.1 7.2a5 5 0 0 0 .4 1.3c.2.4.3.9-.3 1.2s-.3 0-.4-.1c-.9-4-1.9-7.9-2.6-12a7.7 7.7 0 0 0 -.3-3.7c-.5-1.3-.2-2.7-.7-4s0-.7.8-1.1 2-.3 2.8-.9 1.5-.9 2.2.7z"/><path d="m284 13.5a3.9 3.9 0 0 1 1.1 4.8 4.4 4.4 0 0 1 -4.8 2.3 4 4 0 0 1 -3.4-3.5 3.7 3.7 0 0 1 2.4-4.2 7.4 7.4 0 0 1 2.6-.2 6 6 0 0 1 2.1.8z"/><path d="m145.1 46c.6.1 1.4 1.2 1.7-.3s.5-.2.7-.2h1.9c1.7 0 1.7 0 1.6-1.6.5.1.7.4.5.9a1.7 1.7 0 0 0 .2 1.7c.1.1.2.2 0 .5a7 7 0 0 0 -1.1 4.9c0 .8-.4 1-1.1 1h-6c-.3-.3-.8 0-1.4-.3.9-2.1 1.6-4.2 2.5-6.3 0-.2.2-.3.5-.3z"/><path d="m298.4 44.7c-.2.2-.4.5-.7.2a.4.4 0 0 0 -.6.3c-.2.5.3.2.4.3s1.5.9 1.4 2.1c-.7-1-1.2-2.1-2.6-1.3s-.5.2-.5.6-.7 1.5-1.7.9h-.4c1.1 0-.4 2.5 1.8 1.3-.4.6-.9.9-.5 1.4a7 7 0 0 1 -2.9-3.7c-.3-.3.1-.6-.3-.9s-.8-2.2-.5-3.4a1.2 1.2 0 0 1 0-1.3v-.8c-.2-1.3-.2-1.3 1.1-1.4a19.4 19.4 0 0 1 2.4-.2c.7 0 1.3.1 1.6.8.2-.9-.2-1.8.4-2.6s.3 0 .4.1a2.3 2.3 0 0 1 -.1 2c-.2 2.1.7 3.8 1.3 5.6z"/><path d="m209.1 47.1c.1.4-.1 1 .6 1s-.7.5-1.1.4l-1-.6a1.3 1.3 0 0 0 -1.9.5l-.5.6c-1.5 1-1.5 1-2 2a.1.1 0 0 0 -.1.1 2.4 2.4 0 0 1 -1.3-1.1l-.9-.8-1-1.3a10.1 10.1 0 0 1 -1-2.4 12.6 12.6 0 0 0 -.4-2.7c-.3-.6-.3-1.2.8-1.2a19.4 19.4 0 0 0 3.3-.7c.7-.1.6-.7.8-1.2a.5.5 0 0 1 .4-.5c.2 0 .3.3.3.5s.7 1.8-.4 2.5h-.1c0 .1.2 0 .2.1s.9 1.2 1.6 1.6a6.3 6.3 0 0 0 2.3 2c.5.4 1.3.4 1.4 1.2z"/><path d="m169.2 48.4c-.1 0-.3.6-.5.1s-.1-.8-.2-1.2c-.5-2.8-1.2-3.3-4.2-3.4h-5.2c.6-1.2 1-1.3 2-.5a1.8 1.8 0 0 0 1.2.3h4.3l.4.2-.4-.2c-.2-.5-.5-1.2 0-1.4s2-.9 2.4-.3 2.1.7 3 1.3-.4-1.4.1-2l.2.2-.2-.2.3-.8c-.2-.2-.2-.4.1-.5s.4.3.5.5a3.9 3.9 0 0 0 .8 1.4c.5.5.4 1.3.5 1.9s.5-.3.5.1c1.2 2.7 2.1 5.6 3.2 8.3.2.5 0 .7-.5.7-2.4 0-4.7.1-7.1 0s-.9-1.1-1.2-1.8v-1.9c1 .2.9 1 .9 1.6s.3 1.3 1.2 1.2h4.5c.4 0 .9 0 1-.6s0-.2-.4-.4-.3-.2-.3-.4c-.3-1.7-1.7-3.1-1.7-5l-.2.2c-.4.7-2.9 2.2-3.7 2.1s-1.2-.7-1.3-1.5c.1.7.5 1.3 0 2z"/><path d="m237 51.8v.3c-.7.2-1.4.6-2.1.2a11.6 11.6 0 0 0 -4.2.6c-.9.2-1.2-.1-1.2-1a16.2 16.2 0 0 0 .1-2.2c.9.5.2 1.2.4 1.8.2-1.3-.3-2.6 0-3.9a1.4 1.4 0 0 0 .2-.6c.5-1.9.5-1.9 2.4-1.9s2.1.1 2.5-1.3.3-.5.7-.4a.7.7 0 0 1 .4.7c.1 1.1.4 2.1.4 3.2a11.3 11.3 0 0 0 .4 4.5z"/><path d="m254.3 116.7a40.9 40.9 0 0 1 -7 .1c-.5 0-.6-.3-.6-.7v-38.7c0-1.4.4-1.8 1.7-1.7h4.7c1.1 0 1.5.3 1.4 1.4v38.2c0 .5.2 1-.2 1.4a3.5 3.5 0 0 1 -.4-2.2v-32.2c0-1.4-.1-2.8 0-4.2s-.4-1.5-1.4-1.4h-3.4c-1 0-1.5.4-1.5 1.5s0 3.5 0 5.2v31.6c-.1 1 .4 1.3 1.3 1.3h4.3c.4 0 .8-.1 1.1.4z"/><path d="m205.5 44.2c-.9 0-1.2-.6-1.6-1.2s-.2.6-.6 0 1-2.2.5-3.5c-.3.3-.1.7-.2 1.1s0 .7-.4.7a18.6 18.6 0 0 0 -4.1.8c-.5.1-.6.2-.4.6a5.6 5.6 0 0 1 .5 2.8.4.4 0 0 1 -.6 0 4.6 4.6 0 0 1 -.5-2c.1-.7-.3-1.5 0-2.2s0-.9.3-1.3l-.3-1.3c.5-.4.5-.7 0-1.1a2.1 2.1 0 0 1 .3-1.3c.3-.1.3.1.4.4s-.3-.6-.2-.9-.1-.9.3-1.3.5.8.6 1.2.5 1.3 1.5.7a3.1 3.1 0 0 1 2-.7c.5 0 .9.1.7.9s-.1-1.4.6-1.5.4.6.5 1v4.6h.2c.4.8.3 1.7.7 2.5s.2.8-.2 1z"/><path d="m255.9 26.1-.3.3c.1.6-.2.8-.8.7s-.3-.2-.5 0-1.4 1.4-2.5.1-2.2-1.3-3.2-2.1-3-.8-4.6-.7h-.5c-.1 1.8-2.2.7-2.7 2s-.2.1-.2.2-1.1.8-1.9.3-.3 0-.4.2-1.3 1.1-2.1 0 0-1.5-.6-1.5a8.2 8.2 0 0 0 -2.7.6 3.3 3.3 0 0 1 -1.7.2c-.2 0-.4 0-.5-.3s.3-.4.6-.4l3.4-.4h-.3c-4-.3-4-.3-4 3.7 0 .7.3 1.4-.3 2-.5-1-.1-2.2-.2-3.3a16.2 16.2 0 0 1 0-2.2c-.1-.9.3-1.2 1.2-1.2s3.6-.1 5.4.1.2 1.8.6 2.6.8-.5 1.1-.8c3.1-2.8 8.9-3.3 12.2-1.1a5.8 5.8 0 0 1 1.9 1.9c.4.8.9 1.1 1.5.1l.4-.3c.5-.4 1-1 1.7-1a.5.5 0 0 1 0 .3z"/><path d="m232.5 116.7c-.5-.3-.3-.8-.3-1.2v-38.2c0-1.2.4-1.7 1.6-1.6h5c.9 0 1.3.3 1.3 1.2-.1 13-.1 26-.1 38.9 0 .5.1 1-.5 1a40.9 40.9 0 0 1 -7-.1c.4-.5 1-.4 1.6-.4h4.2c.5 0 .9-.1 1-.7a2.2 2.2 0 0 0 .1-.8.9.9 0 0 1 .1-.5c0-12.3 0-24.6-.1-37 0-.1-.1-.2-.1-.4s-1.6-.2-2.4-.3h-2.2c-1.8 0-1.8 0-1.8 1.9s-.1 4.1 0 6.1v30.5a2 2 0 0 1 -.4 1.6z"/><path d="m85 80.9c-.2.1-.6.4-.6.1s-.6-.9-1.1-1.2-.9-1.3-1.8-1.4-1.8-1.9-3.1-2.3l-2.4-1.1c-.2 1 .9.8 1.2 1.3a1.2 1.2 0 0 1 -1.8-.5 1.9 1.9 0 0 0 -2.3-1.1c-1.6.2-3.2-.1-4.8 0s-1.2.6-1.9.7h-2.7c0 .3.8.5 0 .8s-4.4 1.5-5.6 3.9c-.3.5-.7.2-1 0a14.8 14.8 0 0 1 6.8-5 17.9 17.9 0 0 1 20.7 5.1z"/><path d="m287.9 88.3c.5 1.2.2 2.5.2 3.8s.3 1.2 1.2 1.2c3.7-.1 3.3-.1 3.3 3.4s.1 7.1 0 10.7c-.1 1.9-.4 3.8.6 5.6s2 3.1 4.2 3.6 4.1-.1 6.1 0 .9-.5.9-1-.1-2.2 0-3.2-.4-1.2-1.2-.9a1.6 1.6 0 0 1 -2.2-.7 6.6 6.6 0 0 0 2.8.1c.9-.2 1.2.3 1.2 1.2a8.2 8.2 0 0 0 0 2.7c.2 1.5-.4 2.2-1.8 2.3a16.9 16.9 0 0 1 -5.5 0 6.7 6.7 0 0 1 -5.6-6.9c-.1-5-.1-10.1-.1-15.1.1-1.2-.3-1.6-1.5-1.5-2.8 0-2.8 0-2.8-2.8a5.3 5.3 0 0 1 .2-2.5z"/><path d="m277.4 52.1c0 .2 0 .4.2.5s.2.2 0 .3-.4-.7-.4-1v-26.7c0-.9.2-1.2 1.2-1.2a52.3 52.3 0 0 0 5.6 0c.8 0 1.1.3 1.1 1.1-.1 8.9 0 17.9 0 26.9 0 .6-.1 1.1-.9.9a1.3 1.3 0 0 0 .5-1.4v-6a1.7 1.7 0 0 1 -.4-1.2v-11.3c0-2.3 0-4.6.1-6.9s-.5-1.5-1.5-1.5h-3.7c-.8 0-1.2.4-1.2 1.3.1 7.5-.4 15-.4 22.4a23 23 0 0 1 -.2 3.8z"/><path d="m114.6 123.2c.4.1.7.7 1.1.1a.6.6 0 0 1 .9-.2.6.6 0 0 1 .1.9c-.2.5-1 .8-.6 1.3a2.9 2.9 0 0 0 1.8 1 2.5 2.5 0 0 1 1.4.8c1 .9 2.2.8 3.4.7s.2.2.3.4 1.1.6 1.6.7 1.8 1.3 3 .7.2 1.2 1.3.8 1.1.3 1.7 0 .5.1.4.3l-1 .4c2.1.1 3.5 1.2 5.2 1.5s2-.2 2 1.2l-15.6-5.4-5.4-1.8c-.4-.2-.9-.2-1-.7s-.7-1.7-.6-2.7z"/><path d="m103.4 35c.5 0 .1-.7.5-.8 1.2 2.5 2 5.1 3 7.7l6 16.5a1.9 1.9 0 0 1 .2.7l-.5.4v-.9a31.7 31.7 0 0 0 -1.4-4c-.5-.8-.8-1.7-1.2-2.5a9.8 9.8 0 0 0 -.5-1.6.8.8 0 0 1 -.3-.8c-1.6-1.8-1.8-4.3-2.9-6.4s-.9-2.5-1.4-3.6a9.9 9.9 0 0 0 -1.5-3.3c-.5-.3-.9-1 0-1.4z"/><path d="m75 20.6a1.3 1.3 0 0 0 -1.2.5c1.4.1 1.5 1.9 3 2s-.1.6 0 1a8.5 8.5 0 0 0 -9.4-2.2 7.4 7.4 0 0 0 -3.8 3c-.4.6-.7 1.2-1.1 1.7s-.5-.1-.5-.3a3.3 3.3 0 0 1 1.2-2.3c.7 0 1.2-.2 1.2-1.1s.9-.8.9-1.5.1-.1.1-.2.9-.1 1.3-.3h.2a7.3 7.3 0 0 1 3.6-.2 22.6 22.6 0 0 1 4.5-.1z"/><path d="m182.9 116.4-3.7-14.7a17.4 17.4 0 0 1 -.5-2.2 5 5 0 0 1 .1-2.7l.3-.2a1.2 1.2 0 0 1 .7 1.3 9.2 9.2 0 0 0 .6 3.3 6.8 6.8 0 0 1 .2 2 1.1 1.1 0 0 0 .6 1.4c.9.7.4 1.7-.1 2.6h.1c.7-.6 1.1-.1.9.5a2.6 2.6 0 0 0 .3 2.3.4.4 0 0 1 .1.3c0 1.8.9 3.4 1 5.2a1.7 1.7 0 0 1 -.3 1z"/><path d="m188.9 92.5c.6-3.4 1.2-6.8 1.9-10.3l.6-3.3c.1-.7.4-1.1 1.2-1h5.8c1-.1 1.2.4 1 1.2s-.9 3.9-1.3 5.8c-.1.1-.2.1-.3-.1s-.1-1.7.1-2.5a26.1 26.1 0 0 1 .6-2.7c.2-.7-.1-.9-.8-.9h-3.9c-1.3 0-1.8.4-1.9 1.6s-.9 4.4-1.3 6.6a4.3 4.3 0 0 0 -.1.5 2.9 2.9 0 0 0 -.2.9.7.7 0 0 1 -.1.5 2.9 2.9 0 0 1 -.2.9.6.6 0 0 1 -.1.4 9 9 0 0 1 -.3 1.6c-.1.4-.1.9-.7.8z"/><path d="m178.4 29.5c-.5-1.6-.1-3.2-.2-4.9s.3-.5.6-.6h.5c3.1-.1 3.1-.1 3.1-3.2v-2.7c-.1-.9.3-1.2 1.1-1.2a54.2 54.2 0 0 0 5.7 0c.8 0 1 .3 1 1.1v5c0 .8.3 1 1 1.1s2.5-.3 3.8.2-.4.2-.7.3h-4l-.4-.3c-.4-.3-.3-.8-.3-1.3a41.7 41.7 0 0 0 -.1-5c-.9-.7-5.3-.7-6.1 0a35.3 35.3 0 0 0 -.1 4.6c-.1 1.7-.5 2.1-2.1 2.1h-2.4c-.1-.1-.2.2-.1.1h.1a.5.5 0 0 1 .3.4c-.5 1.4 0 2.9-.5 4.3z"/><path d="m85.2 44.5.3-.8c.4-.1.4.2.6.4a3.9 3.9 0 0 0 1.2 1.9c.4.2.4.7 0 1.1s-.3-.1-.4 0 .2 0 .3.1.9 2.8 1.5 4.1-.8 1.1.4 1 .5 1.2.5 1.5 1 3.2.9 4.9c-1.3-2.6-2-5.3-3.1-7.9s-1.4-4.2-2.2-6.3z"/><path d="m181.6 89.1.5-.5c.5.1.2.7.6 1s.6 2.8 1 4.2a16 16 0 0 1 .5 2.1c.5 2.4 1.1 4.7 1.6 7.1 0 .7.4 1.3.4 2s-1.1-.5-1.2-.9c-.4-2.5-1.2-4.9-1.4-7.4l-2.2-6a1.4 1.4 0 0 1 .2-1.6z"/><path d="m63.2 1.4c-.1.3-.9-.5-.7.5s-.7-.3-1.1.2.4.2.3.5h-.3a2.9 2.9 0 0 0 -2.6.2c-1 .3-1 .5-1.7.3a23 23 0 0 1 8-2.7 31.7 31.7 0 0 1 13 .4l1.2.5a.8.8 0 0 1 -1.1 0h-.3c-2.7-.2-5.3-1-8.1-.9h-.8a30.3 30.3 0 0 0 -4.2.6h-.3c-.4.5-.9.1-1.3.4z"/><path d="m218.1 51c.1.2.3.3.5.5-4.1 2.8-11.8 2.7-15.5-.4.9-1.2 1.6.3 2.4.1s1.8-.2 1.4 1.2l.4-.2c.5 0 1-.2 1.3.3s-.3.3 0 .3 3.4-.6 5-.1 2.3-.1 3.1-1.2a1 1 0 0 1 1.4-.5z"/><path d="m220.7 27.4c-.2-.1-.2.6-.6 0a9.1 9.1 0 0 0 -7.6-3.2c-1.2.1-2.4-.1-3.6 0a7.9 7.9 0 0 0 -5.1 2c-.5.4-.9.7-1.5.4s2-1.5 3.2-2.1a8.8 8.8 0 0 1 1.5-.5c4.3-.9 8.4-.7 12.1 1.9a5.7 5.7 0 0 1 1.6 1.5z"/><path d="m53.5 48.4a2.8 2.8 0 0 0 .9-1.6 6.8 6.8 0 0 1 .8-3.1c.1-.1.2-.4.1-.5s.4-1.6 1.1-2.1.3.5.3.8c-.6 2.3-1.5 4.3-2.3 6.5s-1.5 3.9-2.2 5.8c-.3-.2-.2-.5 0-.8s-.2-1 .2-1.3a1.9 1.9 0 0 0 0-1.3c.2-.1-.1-.9.3-.4s.7-.2.7-.2a3.7 3.7 0 0 1 .1-1.8z"/><path d="m56.7 41.9c-.1-.3 0-.6-.3-.8l.2-.3c.2-.5 0-1 .2-1.5s.5-.6.6-1 .1-.2.1-.3a1 1 0 0 0 0-.9.8.8 0 0 1 .2-.6c.3-.4.9-.5.6-1a10.8 10.8 0 0 1 1-3.5 6.1 6.1 0 0 0 1.1-2.9c0-.4 0-1 .5-1.1s.3.1.2-.2.1-1.5 1-1.7.1.4.4.5c-1.3 3.4-2.5 6.7-3.7 10a48.7 48.7 0 0 1 -2.1 5.3z"/><path d="m230.1 25.3v12.1c.7.7.3 1.7.4 2.5v1.7a20.2 20.2 0 0 1 -.4 6v4.4c-.5-.9.1-1.7-.5-2.3v-10.5c.3-.4.1-.8.1-1.2.1-3.9 0-7.7.1-11.5 0-.4-.4-1 .3-1.2z"/><path d="m78.2 1.4h1.1a24.8 24.8 0 0 1 11 6.3 3.5 3.5 0 0 1 -1.9-1 10.2 10.2 0 0 0 -2.9-1.6c-.6-.4-1.3-.6-1.7-1.4s-.8-.3-1-.4-3.2-.5-4.4-1.6-.2-.2-.2-.3z"/><path d="m17.3 89.1c-.6.5-.5 1.2-.6 1.8s-1.7 3-1.9 4.8l-.4.2c.7-2.8 2-5.5 2.9-8.3s2.9-8 4.4-11.9a5.4 5.4 0 0 1 .5-1.1h.2c.5.6-.2 1.2-.1 1.8a5.9 5.9 0 0 1 -.6 1.4c-.4 1.1-.9 2-1.3 3.1a.4.4 0 0 1 -.1.3 6.5 6.5 0 0 0 -.4 1.3c-.1.3-.1.6-.2.9s-.3.4-.4.7a1.4 1.4 0 0 0 -.2.6.4.4 0 0 0 -.1.3 11.2 11.2 0 0 1 -1.1 2.5c-.3.6 0 1.3-.6 1.6z"/><path d="m194.4 24.3h.6a20 20 0 0 1 .1 4.9c.1.5-.5.6-.9.6h-3.2c-.6-.1-.8.2-.8.8v14.1a7 7 0 0 0 .6 1.9c-.3.2-.4-.1-.6-.3s-.1-1.9-.2-2.9-.3-.8-.3-1.2c-.1-3.8-.1-7.7-.1-11.5 0-1.1.4-1.5 1.4-1.6h1.9c1.2 0 1.4-.2 1.4-1.5a19.3 19.3 0 0 1 -.1-2.4.9.9 0 0 1 .2-.9z"/><path d="m102 90.2c-1.3-3.4-2.7-6.7-3.7-10.2 0-.3-.2-.5-.1-.8s.3-.2.6-.3.7 1.1 1.2.1.5.1.5.4 0 .5 0 .8-.8.9-.5 1.5.6 3.7 1.9 5.2a.9.9 0 0 1 .1.5c-.3 1 .8 1.8.3 2.7-.1.2-.2.2-.3.1z"/><path d="m4.9 124.5c-.5.5-1.2.7-1 1.6s-.8 2.5-1 3.8-.5.4-.8.5h-.3c1.2-3.8 2.6-7.6 4.1-11.3.3.2.1-.9.6-.2s.8.7.1 1.2a2.2 2.2 0 0 0 -1.1 2.6c0 .1-.2.2-.3.4s.1 1-.3 1.4z"/><path d="m196.8 90.7c-1 4.6-2.1 9.3-3.1 14a15.4 15.4 0 0 0 -.5 1.7c-.8 0-.4-.5-.4-.8a4.3 4.3 0 0 1 .1-.5 3 3 0 0 0 .2-1.3 2.9 2.9 0 0 1 .2-.9l.3-.6c.2-1.3.2-2.5.5-3.7a7.6 7.6 0 0 1 .6-1.6l.2-.5a4.1 4.1 0 0 1 .1-1.1v-.3c.2-.6.2-1.1.4-1.7v-.9a2.8 2.8 0 0 1 .1-.9v-.4c.3-.7.4-1.4.7-2.2s.2-1 .9-.5a5.4 5.4 0 0 1 -.3 2.2z"/><path d="m154.8 18.8c.2 1.5-1 2.7-.9 4.2l-.3-.6c-.5 1.2-.5 2.5-1.3 3.5a.8.8 0 0 0 -.2.4 5 5 0 0 1 .2 1.2c0 .8-.6-.1-.7.3a27.6 27.6 0 0 1 -.8 2.7 3.6 3.6 0 0 1 -1.3 2.1c.8-3 2.1-5.9 3.2-8.9a48.7 48.7 0 0 1 2.1-5.3.3.3 0 0 1 .1.2z"/><path d="m182.9 48.2a8.1 8.1 0 0 1 -.5-3.1c0-4.7-.1-9.3 0-14 0-1-.2-1.4-1.3-1.4a4.2 4.2 0 0 1 -2.7-.2h.1a2 2 0 0 1 1.6-.4c3.1 0 3.1.1 3.2 3s-.5 8.1-.3 12.1a10.9 10.9 0 0 0 .1 1.8c0 .7.3 1.5-.2 2.2z"/><path d="m43 79.2c-1.2 3.6-2.5 7.2-3.9 10.7a.5.5 0 0 1 -.3-.5 2.7 2.7 0 0 1 .2-1.3c.1-.2.2-.3.2-.5s.1-2.2.9-3a.9.9 0 0 1 .3-.6c.4-.7.1-1.5.3-2.2s1.3-1.6 1.3-2.8.4-1.2 1.1-.3a1.1 1.1 0 0 1 -.1.5z"/><path d="m1.8 130.3h.2c.8.1.8.6.4 1.1a5.1 5.1 0 0 0 -1 2.4 2.2 2.2 0 0 0 1.2-.5c1.2-1 2.8-.8 4.2-1.5s.6.2.7.6h.1l-7.6 2.8a21.7 21.7 0 0 1 1.8-4.9z"/><path d="m172.7 40.8-.2-.6v.3c.4-1.6-1.3-2.4-1.4-3.8a9.9 9.9 0 0 1 -.2-1.7c.4.5.9.9.8 1.6s.3.3.5.3a45.9 45.9 0 0 1 2.7 7l-.4.5c-.6-.6-.4-1.6-1-2.3s0-1.2-.8-1.3z"/><path d="m35.4 40.8-.3.3a.5.5 0 0 1 -.6-.1 79 79 0 0 1 3.5-9.2 4.1 4.1 0 0 0 .5.9c.2.4-.1.8-.3 1.1a1.9 1.9 0 0 0 -.5 1.4c0 1.2-.8 2.2-1.2 3.2a10.4 10.4 0 0 1 -1.1 2.4z"/><path d="m182.9 48.2v-2.2a38.6 38.6 0 0 1 0-6.8c.8.6.6 1.4.5 2.1v5.7c0 .7-.1 1.4 1.1.9-1.1 1-.3 2-.3 2.9a3.8 3.8 0 0 1 -1.3-2.6z"/><path d="m230.1 25.3c-.4.4-.2.9-.2 1.4v11.2c0 .4.1 1-.3 1.3 0-4.7 0-9.5-.1-14.2 0-.4 0-1 .6-.9a34.1 34.1 0 0 1 6.4.1h-5.3c-.9 0-1.2.3-1.1 1.1z"/><path d="m307.9 24.2c-2.5 0-5 .1-7.5 0a5.8 5.8 0 0 0 -2.3.9c-.4.3-.6.1-.8-.1 2.4-1.6 5-1.6 7.7-1.4a5.8 5.8 0 0 1 2.9.6z"/><path d="m255.9 25.6-1.7 1a8.1 8.1 0 0 1 5.5-2.9 10.8 10.8 0 0 1 5.9.5h-5.8c-1.3.4-2.5 1.2-3.9 1.4z"/><path d="m39 89.3c0 .2.1.4.1.6-1 3.1-2.1 6.2-3.4 9.2 0-.3-.1-.5-.1-.8a4.1 4.1 0 0 1 .8-2.4v-1.3c.8-.3.6-1.1.8-1.6s0-.9.3-1.3v-.5c.3-.2.5-.4.2-.8v-.3c.3-.2.8 0 .8-.5s-.5-.7 0-1 .2.6.5.7z"/><path d="m6.5 118.8c-.3-.3-.3.3-.6.2a74.7 74.7 0 0 1 2.9-7.9h.3c.2.8.4 1.4-.5 2s-.7 1.3-.6 1.6-.4 1.3-.4 2a1 1 0 0 0 -.6 1c0 .5 0 .9-.5 1.1z"/><path d="m311.5 50.8a39.2 39.2 0 0 1 2.5-3.2c.9-1.3.5-2.7 1-3.9s-.6-.5-1-.5h-5.6c.9-.6 1.8-.2 2.8-.3h1.9c2.7 0 2.8.2 2.1 2.7a8.9 8.9 0 0 1 -3.7 5.2z"/><path d="m98.4 79.1a2.8 2.8 0 0 1 -.1.9 46.6 46.6 0 0 1 -2.6-7.1c.1-.3 0-.7.3-.9a23.2 23.2 0 0 1 1.6 5.1c.1.5.3-.1.5-.1a1.8 1.8 0 0 1 .3 2.1z"/><path d="m220.2 88.6c-1.8.1-3.4-1-5.2-.5s-2.9-.1-4.3 0a.5.5 0 0 1 -.6-.1 14.7 14.7 0 0 1 10.1.6z"/><path d="m145.1 46c-.7.4-.7 1.1-.9 1.7s-1.2 3.2-1.8 4.7.9 0 1.1.5c-1.7.1-1.7.1-1.1-1.5s1.9-5.6 3.2-8.3c.4 1.1-.9 1.9-.5 2.9z"/><path d="m193.1 105.6c-.1.3-.4.6.1.8a37.5 37.5 0 0 1 -1.3 5.8c-.3.1-.1.6-.6.5a2.4 2.4 0 0 1 0-2.8 4.6 4.6 0 0 0 .8-3.6c-.1-.4-.1-.8.4-1a.5.5 0 0 1 .6.3z"/><path d="m172.4 105.9.6-.5c-.9 3.6-1.8 7.3-2.6 10.9l-.3.4-.2-.2a3.5 3.5 0 0 1 .1-2 36.5 36.5 0 0 0 1.4-5.7c.2-.5.2-1 .4-1.5s.2-.9.5-1.3z"/><path d="m167.1 104.8c-.5.3-.6.1-.7-.4-.5-3.1-1.1-6.1-1.7-9.2a1 1 0 0 1 .1-.9c.8 3 1.2 6.1 1.8 9.2.1.3-.1.9.6.3a3.4 3.4 0 0 0 -.1 1z"/><path d="m161.3 112.7h.3a1.4 1.4 0 0 1 .6 1.3 3 3 0 0 0 .5 1.6 2 2 0 0 0 1.9.7h3.9a2.1 2.1 0 0 1 1.5.3h.1c-2.5.4-5 .1-7.4.2-.4 0-.5-.3-.6-.6a15.5 15.5 0 0 1 -.8-3.5z"/><path d="m187.1 101.7.3-1.6c.3-.4-.3-1.2.5-1.4l.4.2a5.3 5.3 0 0 1 .1 3.3c-.3.6-.5 1.8-1.6 1.9a9.3 9.3 0 0 1 .3-2.4z"/><path d="m188.1 98.8h-.2a1.5 1.5 0 0 1 0-1.3c.3-1.7.7-3.3 1-5l.6-.8c0 .1.1.1.1.2a2.9 2.9 0 0 1 -.1 2.4 19.8 19.8 0 0 1 -.8 2.6 4.4 4.4 0 0 0 -.2 1c-.1.3-.1.7-.4.9z"/><path d="m163.8 14.5c-.5.7-1.1.6-1.7.2l.6-.3h-5.4c-.2 0-.6 0-.6.4s.3.1.5.1c-.3.4-.7.2-1.1.2s.1-.9.7-.9h6.6c.2-.1.3.1.4.3z"/><path d="m146.4 42.1c-.4.3-.2.9-.8 1a46.6 46.6 0 0 1 2.6-7.1c.1.4-.1.8.3 1.1a.8.8 0 0 1 -.1.7 11.9 11.9 0 0 0 -.9 1.5 6.9 6.9 0 0 1 -1.1 2.8z"/><path d="m43.2 18.2c.4.9-.2 1.6-.6 2.3a18.3 18.3 0 0 0 -1.4 3.2c-.2.3-.2.7-.6.8a23.3 23.3 0 0 1 2.6-6.3z"/><path d="m128.6 102.5c.2-.1.2-.4.2-.6a46.6 46.6 0 0 1 2.7 7.4l-.8-.5c-.2-.5-.1-1.1-.3-1.6-.3-.2-.1-.5-.3-.8-.5-.2-.2-.7-.5-1v-.5c-.4-.2-.4-.6-.5-.8a1.4 1.4 0 0 1 -.3-1.1z"/><path d="m308.3 43.4c.3.1.9 0 .7.4s-1.4 2.9-3.2 3.3-.8 1-1.4.2c2-.6 3.5-1.7 3.9-3.9z"/><path d="m210.1 88h.6c0 .9-1.2.2-1.5.9s-.6-.3-.8 0 .3.5.2.5h-1.4l-.5-.2a7.1 7.1 0 0 1 3.4-1.2z"/><path d="m24.9 67.3v.3c.4 1.5-.7 2.7-1 4a7.5 7.5 0 0 1 -.9 2.5c-.2.2-.3.6-.7.6h-.1a49.3 49.3 0 0 1 2.7-7.4z"/><path d="m57.1 3.2c.1.6.1 1.1-.8 1s-.5-.1-.5.1c-.1 1.7-1.4.7-2.1 1a12 12 0 0 1 3.4-2.1z"/><path d="m154.8 18.8v-.4a10.9 10.9 0 0 1 1.3-3.4c0 .4.5.5.1 1.1a2.9 2.9 0 0 0 -.7 2.3c.1.4-.3.6-.7.4z"/><path d="m133.6 114.8c-.9-.4-.8-1.2-1-2s-1.2-2.2-1.1-3.5a32.9 32.9 0 0 1 2.1 5.5z"/><path d="m43.8 18.2c-.2.3-.4 0-.6 0a16.9 16.9 0 0 1 2.7-4.7v.5c0 .3 0 .6-.5.7s0 .3.2.4-.2.4-.5.2-1.3 1.8-1.3 2.9z"/><path d="m182.9 116.4h.3c.1-.1.2-.3.4-.3 2.3.4 4.6 0 6.9.3l.3.3a47 47 0 0 1 -7.5.1c-.3 0-.4-.1-.4-.4z"/><path d="m43 79.2v-.6c-.4-.5-.8-1-.3-1.7s.6-1.4 1.6-1.5v.3a14.8 14.8 0 0 1 -1.3 3.5z"/><path d="m175.8 94.1.3-2.3a1 1 0 0 1 .4-.5.5.5 0 0 1 .5.5c.2.9.3 1.7.4 2.5s-.4-1.3-.8-2-.2 1.4-.8 1.8z"/><path d="m304.2 47.3a1.2 1.2 0 0 1 -1.9.4 18.9 18.9 0 0 1 -2.1-.9c-.1-.2-.1-.4-.2-.6a7 7 0 0 0 4.2 1.1z"/><path d="m30.4 113.2v.3a14.8 14.8 0 0 1 -1.3 3.5c-.4-1.5 1-2.5.8-4s.3.2.5.2z"/><path d="m314.4 30.6c-.2-1.4-1.4-2.2-1.8-3.5a7.7 7.7 0 0 1 2.6 5.3c-.6-.5-.3-1.3-.8-1.8z"/><path d="m52.2 53.4v.8a7.6 7.6 0 0 1 -.8 2.1c-.2-1.1-.7-2.3.8-2.9z"/><path d="m182.7 89.6c-.4-.2-.3-.7-.6-1s-.9-3.1-.8-4.8a28.9 28.9 0 0 1 1.4 5.8z"/><path d="m196.8 90.7.3-2.4v-.2a6.1 6.1 0 0 1 .8-3.2h.2a16.8 16.8 0 0 1 -1.3 5.8z"/><path d="m268.8 26.6c-1.2-.4-1.8-1.6-3.1-1.9s-.1-.3-.1-.5a5.1 5.1 0 0 1 3.2 2.4z"/><path d="m190.2 46.3.6.3a7 7 0 0 0 3.5.5c.3 0 .8-.4.9.2-1.5 0-3 .3-4.5-.3s-.5-.3-.5-.7z"/><path d="m34.5 41h.6c.6.9-.6 1.3-.6 2.2l-.5-.7a3 3 0 0 1 .5-1.5z"/><path d="m187.1 101.7c.2.8-.3 1.6-.2 2.3a1.1 1.1 0 0 1 -.2 1.3c-.3.2-.5.1-.6-.2s-.5-1.4-.3-2.1.1 1 .7 1.4a6 6 0 0 1 .6-2.7z"/><path d="m178.9 99.4.3 2.3a18.7 18.7 0 0 1 -1.3-5.3l.5.9c.1 0 .1 0 .1.1s.2 1.3.4 2z"/><path d="m102 90.2h.3c.4 1.5 1.3 2.8 1.3 4.3a21.4 21.4 0 0 1 -1.6-4.3z"/><path d="m87.9 95.9h.3a9.1 9.1 0 0 1 -1.3 3.7h-.2a5.4 5.4 0 0 1 1.2-3.7z"/><path d="m191.5 112.7c.1-.2.1-.4.4-.5a14.1 14.1 0 0 1 -1.1 4.5h-.1a4.9 4.9 0 0 1 .8-4z"/><path d="m206.7 89.3c.2 1.1.2 1.1-1.8 1.3a3.8 3.8 0 0 1 1.8-1.3z"/><path d="m251.7 52.6v.3h-4.2c1.3-.6 2.8-.1 4.2-.3z"/><path d="m294.2 27.1a2.5 2.5 0 0 1 -1.6 2.1 5.4 5.4 0 0 1 1.6-2.1z"/><path d="m202.3 26.6a2.2 2.2 0 0 1 -1.6 1.6 2.5 2.5 0 0 1 1.6-1.6z"/><path d="m198.6 45.5h.6c-.1.9.7 1.5.7 2.4a7 7 0 0 1 -1.3-2.4z"/><path d="m203.1 113.2h-.3a2.3 2.3 0 0 1 -.8-1.6c.2.7 1.4.6 1.1 1.6z"/><path d="m297.3 25c-.5.5-.9 1.3-1.8 1.1a2.7 2.7 0 0 1 1.8-1.1z"/><path d="m164.8 94.3a2.8 2.8 0 0 1 -.1.9c-.1-.5-.3-.9-.4-1.4v-1.6a16 16 0 0 1 .5 2.1z"/><path d="m312.6 27.1a2.9 2.9 0 0 1 -1.9-1.5 4.7 4.7 0 0 1 1.9 1.5z"/><path d="m199.9 29.2a2.9 2.9 0 0 1 -1.1 2.1 4.3 4.3 0 0 1 1.1-2.1z"/><path d="m187.9 97.5v1.3c-.4.4-.1 1-.5 1.3a4 4 0 0 1 .5-2.6z"/><path d="m184.2 95.9a3.6 3.6 0 0 1 -.5-2.1c.7.6.5 1.4.5 2.1z"/><path d="m284 13.5-2.1-.8a2.2 2.2 0 0 1 2.1.8z"/><path d="m50.6 58.6a3.4 3.4 0 0 1 .8-2.1 3.9 3.9 0 0 1 -.8 2.1z"/><path d="m85.8 101.4.5-1.5c.1-.2.2-.4.5-.3h.1c-.3.7-.4 1.4-1.1 1.8z"/><path d="m295.5 26.1c-.3.5-.6 1-1.3 1a1.9 1.9 0 0 1 1.3-1z"/><path d="m277.6 52.9v-.3c.4 0 1-.9 1.1.3z"/><path d="m168.7 27.7a1.6 1.6 0 0 1 -.5-1.6 1.9 1.9 0 0 1 .5 1.6z"/><path d="m207 24a2.5 2.5 0 0 1 -1.5.5 1.4 1.4 0 0 1 1.5-.5z"/><path d="m92.1 63.4a2.7 2.7 0 0 1 .5 1.5 1.4 1.4 0 0 1 -.5-1.5z"/><path d="m200.7 28.2c0 .5-.1 1-.8 1a1.4 1.4 0 0 1 .8-1z"/><path d="m263.8 113.5a1.4 1.4 0 0 1 1 .8c-.5-.1-.9-.3-1-.8z"/><path d="m200.9 49.2a1.2 1.2 0 0 1 .9.8 1.2 1.2 0 0 1 -.9-.8z"/><path d="m291.8 46c1 .1 0 .7.3.9l-.3-.5z"/><path d="m269.3 104.9h15.5c1 0 1.3-.2 1.3-1.2s0-2.7-.1-4c-.3-3.6-1.4-7-4.3-9.5s-6.3-3-9.9-2.7a12.3 12.3 0 0 0 -9.4 5.5c-3.5 5.1-4 15.3 1.4 20.5l1 .8c3.8 3.1 8.2 3.5 12.9 2.7a12.3 12.3 0 0 0 7-3.9c.6-.6.7-1.1.1-1.7s-1.7-1.9-2.5-2.8-.7-.6-1.2 0a7 7 0 0 1 -2.9 1.9c-4.2 1.8-8.7.1-10.1-3.8-.6-1.6-.5-1.8 1.2-1.8zm6.2-10.8a4.8 4.8 0 0 1 3 4.8c-.1.6-.4.8-1 .8h-8.7c-.5-.1-1 0-.9-.8a5.4 5.4 0 0 1 7.6-4.8z"/><path d="m223.9 116.6c.8 0 1.9.5 2.4-.1s-.3-1.4-.4-2.2c-.6-5.2 0-10.3-.2-15.4-.2-2.4-.2-4.8-1.7-6.9s-2.2-1.9-3.3-2.8-.5-.3-.5-.6c-3-1.1-6.1-.8-9.2-.7a5.7 5.7 0 0 1 -2.2.7c-.2.1-.6.1-.6.4s-.5.3-.7.3-.5-.2-.8 0c-.2.9-1.2.9-1.8 1.3a8.2 8.2 0 0 0 -2.8 4.9c-.2.7 0 1.2.9 1.1h5.8c.6.1.9-.2 1-.8a3.4 3.4 0 0 1 2.9-2.6c1.7-.2 3.5-.2 4.7 1.5a4.4 4.4 0 0 1 .6 4.1c-.4.8-1.7.2-2.6.3s-.3 0-.5 0c-3.2.2-6.3.4-9.2 2a8.4 8.4 0 0 0 -3.7 10.6c.2.6.7.9 1 1.5h.1a8.9 8.9 0 0 0 6.9 3.7l2.3.3a15.6 15.6 0 0 1 3.7-1l.9-.6c1.4-.9 1.4-.9 2.2.5s3.2.5 4.8.5zm-7-6.3c-2 1.7-5.2 1.8-6.9.2s-1.2-3.7.7-5.9a3.8 3.8 0 0 1 2.4-.9c1.5-.1 2.9 0 4.3 0s.8.1.8.7v4.1c0 .9-.7 1.3-1.3 1.8z"/><path d="m90.2 10.3a.7.7 0 0 1 -.6-.7c0-.4.5-.4.8-.6s.6.2.3.6.2.8-.5.7z"/><path d="m95.2 15.3.3.7c-.1 0-.2.1-.3 0s-.3-.6 0-.9z"/><path d="m46.9 13.8-.2.2c-.1-.2-.4-.5-.2-.8s.3.4.4.6z"/><path d="m86.8 99.6-.5.3c.1-.5-.5-.4-.4-.7s-.6-1.2-1.4-1.2h-22.2c-1 0-1.8.2-1.7 1.4s-.6.7-1.1.7-1.1 0-1-.8-.2-1.1-.8-1.2-1.2-.4-1.3.5-.2.2-.3 0-.7 0-1-.1-1.7-1.6-1.1-2.9v-.4a9.6 9.6 0 0 1 .3-5.8 1.2 1.2 0 0 0 -.1-1 1.3 1.3 0 0 1 .5-1.6 1.6 1.6 0 0 1 1.6.2 4.3 4.3 0 0 0 4.6-.1 1.3 1.3 0 0 1 1.6 0 2.6 2.6 0 0 0 2.2.6h20.6c1.2 0 .4-1.2 1.2-1.3.7 2 1.8 4 1.3 6.3s.5 2.2.1 3.3z"/><path d="m45.1 15.3c.2 0 .4 0 .5-.2l.2 2c-.6-.6-.5-1.2-.7-1.8z"/><path d="m98.4 79.1-.3-2.1h17.6c1 0 2-.3 2.7 1s1.6 1.2 1.7 2.2 1.3 2.8 1.8 4.3.2 1.4.6 2h-.4c.1 1.4-1 .8-1.7.8h-10.2a2.2 2.2 0 0 1 -1.3-.4 2.1 2.1 0 0 0 -1.9-.1 4.6 4.6 0 0 1 -2.8.4c-1.6.1-1.7.1-1.6 1.7s.1.9-.3 1.2a3.3 3.3 0 0 0 -.5-1.6.6.6 0 0 1 0-1c.2-.2.2-.2 0-.5s-.9-1.5-1.3-2.2a2.2 2.2 0 0 1 -.2-1.1c.2-1-1.2-1.9-.8-2.4a2.5 2.5 0 0 0 .7-2.1c-.8 0-.3.7-.6 1s-.3-1.3-1.2-1.1z"/><path d="m124.1 90.1c.1.1.2.2.2.3s-.1.7-.4 1.2-.6-1.1.2-1.5z"/><path d="m123 87.5c-.1.7.6 1 .6 1.6s-1.2-.8-.6-1.6z"/><path d="m88.7 51.3c-.4 0-.8-.2-.8-.6s-1.1-2.3-.8-3.6.4-.9.1-1-1.2-1.6-1.7-2.4v-.3c0-1.8.1-2 1.9-1.9s2.7-.5 4-.6.8-1.2 1.3-1.7a.7.7 0 0 1 .6-.1c.6.2.6.8.8 1.3s.6 1.1 1.2.9 2.3 0 2.6 1.6c.8-.4.6-1.1.6-1.6s0-1.6.6-2.2 1.3-.1 1.4.7.8 1.2 1.6 1.2h.6c1.7.2 1.7.2 2.2-1.3 1.1 0 .5 1 .8 1.3s-.4 1.2.6.8.2.2.2.3a21.4 21.4 0 0 0 2.6 6.9c.1.2.3.5 0 .7h-2.3c-1-.1-.6 1.4-1.3 1.2s-.1-1.3-.9-1.6a1.9 1.9 0 0 0 -2.4.9 2.1 2.1 0 0 1 -3.4.2 1.9 1.9 0 0 0 -3.1.2 1.8 1.8 0 0 1 -3 0c-.5-.7-.8-1.8-1.8-1.5a3.1 3.1 0 0 0 -2.2 2.2z"/><path d="m109.4 50.5a1.3 1.3 0 0 1 .5 1.6c-1.1-.6-.1.8-.7.7a4.5 4.5 0 0 1 .2-2.3z"/><path d="m96 70.7c.4.3.1.5 0 .8s-.3-.5 0-.8z"/><path d="m89.5 50.6.4.4-.3.2a.2.2 0 0 1 -.2-.2c0-.1.1-.2.1-.4z"/><path d="m11.5 105.4a11.7 11.7 0 0 0 1.4-3.3c.2-.7.4-.8 1.1-.4a5.1 5.1 0 0 1 .3-3c.1-.5.2-1.9 1.9-.9s3 .5 4.5 0 1.8-.7 2.1.7a.9.9 0 0 0 1.1.5c.4 0 .9-.1 1-.7a.9.9 0 0 1 1.4-.7c1.4.7 2.9.3 4.3.4h.6c2.8 0 2.6 0 2.7 2.7a9.3 9.3 0 0 1 -.5 3.4c-.2.7-.9 1.3-1 2.2s.3.8-.2 1.2c-1-1.3-2.4-1.1-3.8-1.1h-4.1a2.8 2.8 0 0 1 -2-.5 1.2 1.2 0 0 0 -1.4-.2c-1.8 1.2-3.9.5-5.8.7h-2c-.5 0-.7.4-1 .9s-.2-1.4-.6-1.9z"/><path d="m11 108c0-.5-.3-1.1.2-1.6s-.1 1.6 1 1.9c-.6.5-.9 0-1.2-.3z"/><path d="m32 108a1 1 0 0 1 -.6.5c0-.2-.3-.6-.2-.7s.5.3.8.2z"/><path d="m26.7 65.2c.6-.7-.4-1.5.2-2.2s.2-.9.8-.9.4-.4.3-.5.6-1.1 0-1.6l.5-.2c.6 0 .1.7.6 1v-1.8c0-.4-.1-.8.4-.8s1.3-.4.5-1.3-.7-1.1.5-1.1.3-.7.6-1.2a1.5 1.5 0 0 1 -.3 1.6c-.2.3-.3.8 0 1s.6 0 .8-.2 1.4-.4 2.1-.4 1.5 0 1.9-.9a.9.9 0 0 1 1.2-.4c.5.3.3.7.2 1.2s.2 1.6 1.4 1.6 1.7-.2 1.7 1.2.6.4 1 .4 1.6.4 2-.4.3-1.2-.7-1.2h-1.7c-.5-.1-.6-.4-.6-.9s.2-.7.6-.6c2 .2 3.8-.8 5.8-.6s1.6.2 1.5 1.3-.1.7.3.7 1.2 1.3.9 2.1-.8 2.4-1.1 3.7-.4.7-.7 1a1.3 1.3 0 0 0 -.5 1.1 1.5 1.5 0 0 1 -.5 1.9c-.2.1-.4.2-.5 0s-1.5-.9-2.5-.9h-15.6c-1.1-.2-1.3-.5-1.1-1.7z"/><path d="m26.7 65.2c0 1.2.7 1.3 1.7 1.3h16.1c.8 0 1.8-.2 1.6 1.2h.3c.3.4-.1.6-.3.8s.1 1.1-.7.9 0 .2 0 .2a1.6 1.6 0 0 1 -.1 1c-.1 1.6-1.2 3-1 4.7s-.8 1.3-1.3 1.7a3.7 3.7 0 0 0 -3.3-1.7h-2.7a2.3 2.3 0 0 1 -2.1-.9c-.3-.5-.7-.6-1.1-.1a2.4 2.4 0 0 1 -2.3 1h-7.1c-.7 0-1.4 0-1.4 1s-.3.9-.8.3.3-1.2.1-1.8a9.8 9.8 0 0 0 1.3-3.2h.4a21.7 21.7 0 0 0 .7-2.4c.1-.2.1-.6.4-.6s.9-.9.8-1.6.1-1.5.8-1.8z"/><path d="m25.9 66.8c.2.7 1 1.6-.6 1.7s-.4.6-.4 1-.9 2-.8 3.2-.1-.9-.5-1.2a25.5 25.5 0 0 0 1.3-3.9c.3.2.4.5.8.5s-.2-.7 0-1.1z"/><path d="m45.3 70.7c-.4-.2 0-.6-.2-.9s-.8-.5-.4-1 .5.3.8.4.3-.5.6-.6.5 1.8-.8 2.1z"/><path d="m52.4 50.8a.9.9 0 0 1 0 1.3c0-.5-.3-.9 0-1.3z"/><path d="m25.7 67c.1.4.4.7 0 1.1s-.5-.7 0-1.1z"/><path d="m148.2 37.6.3-.5c0-1.5 1.4-2.4 1.5-3.8s.1-.8.9-.4a2.6 2.6 0 0 0 2.1-.1c.3-.1.5-.3.8-.3s2 .2 1.4-1.4.2-.3.4-.2.2.3.2.5.2 3.2-.6 4.6-.3.8.1 1.1-.5 1.3.4 1.6a.4.4 0 0 1 -.1.5h-.5c-1-.5-1.7-1.1-2.9-.1s-1.4.6-1.4 1.6-.4.5-.7.6-1.2-.6-1.7.1-.3-.1-.2-.3-.3-1.2-.2-1.9 0-1 .2-1.6z"/><path d="m170.6 35a2.5 2.5 0 0 1 -2.2 2.2 19.4 19.4 0 0 1 -3.3.7c-.2-.2-.2-.3-.1-.5s-.4-2.5-.6-3.8a2.2 2.2 0 0 1 1.8-2.8h1.8c.4 0 .8-.2 1.1.2a.7.7 0 0 1 -.2 1 .8.8 0 0 0 -.1.8c.6.2.3-.7.9-.6z"/><path d="m159.5 25.6c0-.4.1-.7.1-1.1s.7-.3.8.3.6 1.2.4 1.8-.3-1.1-.7-1.6-.3.5-.6.6z"/><path d="m157.2 14.8c.5-.5 1.2-.1 1.8 0z"/><path d="m136.2 124a3.7 3.7 0 0 1 -3.7.6 3.4 3.4 0 0 0 -3.1 0 3.4 3.4 0 0 1 -2.6.1c-1.8-.9-3.4-.1-5.1.1s-1.9-.2-2.7.5-.9.5-1.3.1a1.1 1.1 0 0 1 0-1.2c.1-.5.3-1 1-1h1.5a13 13 0 0 0 4.4-.5c.4-.1.6-.2.5-.6s-.5-.5-.8-.5h-8.3c-.6 0-1.1-.1-1.2-1s-.3.9.1 1.2.5.9-.3 1.1a6.5 6.5 0 0 1 -.6-2.4c-.4.6-.5 0-.5-.2s-.8-2.6-1-4-.5-.9-.2-1.5c2.1.7 4.3.4 6.5.4s4.6.1 6.8 0a50.2 50.2 0 0 0 6.7-.1c.1.3-.3.9-.1 1.6s.1-.8.6-1.1c1.8 2.6 2.2 5.7 3.4 8.4z"/><path d="m129.1 104.1a5.6 5.6 0 0 1 .5.8c-.5.2 0 .8-.5 1.1a1.7 1.7 0 0 1 0-1.9z"/><path d="m130.4 107.2a1.4 1.4 0 0 1 .3 1.6c-.5-.5-.4-1-.3-1.6z"/><path d="m128.8 103c.4.3.2.7.3 1.1s-.6-.6-.3-1.1z"/><path d="m130.1 106.4a.8.8 0 0 1 .3.8c-.7-.1-.4-.4-.3-.8z"/><path d="m129.6 105.4.5 1c-.7-.1-.4-.6-.5-1z"/><path d="m39 89.3-.5-.7c-.2-.6-.5-.6-.5 0s-.5 1-1.3 1h-16.9c-.7 0-1.4 0-1.3 1.1-.7-1.1.1-2.1-.2-3.2s0-.8.3-1.2a1.7 1.7 0 0 0 .2-1.4v-.3c.2-.1.4-.2.3-.5a.5.5 0 0 1 .5-.5c.2-.9.6-1.4 1.5-.8h.8c4.7 0 9.3-.2 14-.3 1.3 0 2.6-.8 4-1.1s.8-.5 1 .2a19.3 19.3 0 0 1 -.1 2.4c0 .1 0 .1-.1.1a.1.1 0 0 0 -.1-.1.7.7 0 0 1 -.6-1 2.6 2.6 0 0 0 .4 1.5 6.1 6.1 0 0 0 -.8 3.2c-.5.2-.9-.3-1.4-.1a1.1 1.1 0 0 1 1.1.3z"/><path d="m37.5 91.7c.4 1-.1 1.9-.4 2.8s-.4.3-.7.1.1-2.7 1.1-2.9z"/><path d="m18.8 84.9c.4.5.7 1 0 1.5a1.4 1.4 0 0 0 -.5 1.1l-.5.8a.6.6 0 0 1 0-.8 27.7 27.7 0 0 1 1-2.6z"/><path d="m36.4 95.9-.8 2.4c-.6-1.1 0-1.8.8-2.4z"/><path d="m34.8 100c-.5-.6-.2-1.1.2-1.5z"/><path d="m17.8 87.5v.8c0 .9 0 .9-.5.8s0-1.1.5-1.6z"/><path d="m38.5 89.6c.2.5.2.5-.8.5s.7-.2.8-.5z"/><path d="m37.7 90.4a1 1 0 0 1 .5.8c-.1.3-.5-.1-.7 0z"/><path d="m7.5 132.4c-.8-1-1.4.4-2.2.3s-.4.7-.6-.1-.2-.2-.4 0-2.2 1.2-3.6 2.1c.6-1.4.5-2.7 1.5-3.5s0-.6-.2-.9.9-.7.8-1.4.6-1.9 1.1-2.8c5.1-.9 10.3-.4 15.5-.5.5 0 1-.1 1.4.6s1.2 0 1.7-.2 1-.2 1.6 0c-2.4 0-4.3 2.6-6.9 1.3.1.8.8.5.9 1.1s-1.1-.1-1.6.1-.4-.3-.7-.2.5-.1.7.2v.4c-1.2 0-2 1-3.2.9a2.2 2.2 0 0 0 -1.5.6l-.4.2c-1.7-.2-2.5 1.3-3.9 1.8z"/><path d="m35.4 40.8a4.9 4.9 0 0 1 .8-2.5 4.3 4.3 0 0 0 .9-2.2 7.4 7.4 0 0 1 1.4-3.4c-.1-1.1.8-1.9.8-2.9a1.9 1.9 0 0 0 2.8.2c.5-.5 1.1-.2 1.7.1s3.6.5 5.5.5.6-.4.8-.8.5-1 1.1-.9.8.4 1 .9.7.9 1.4.9a9 9 0 0 1 2.8.4c1.2.3 1.6.1 1.7-1.2a.9.9 0 0 1 .1-.5c.1-.3.1-.7.6-.7a.6.6 0 0 1 .6.6 4.5 4.5 0 0 1 .1 2.8 25.4 25.4 0 0 0 -1 3.7l-.6.8c-.2.1-.2.3-.2.5s.1.7 0 1.1v.2c-.5.1-.8.3-.8.8s.4 1.2-.3 1.6a6.5 6.5 0 0 0 -7.6-.7l-.6.2c-1.8-.6-3.6.2-5.4 0s-2-.2-1.4-1.7a1.1 1.1 0 0 0 -.4-1.4 1.1 1.1 0 0 0 -1.1 0 1.1 1.1 0 0 0 -.5 1.3c.2.8.5 1.6-.7 1.6s-1.5-.6-1.4-1.7a4.3 4.3 0 0 1 -.1-.5 3 3 0 0 1 -2 2.9z"/><path d="m59.5 32.1c-.3-1 0-2.3-.7-3.3s-.3.8-.3 1.2-.6 2.1-2.2 1.5a7.8 7.8 0 0 0 -3-.4c-.8 0-1.4-.1-1.4-1.1a.8.8 0 0 0 -.8-.9.7.7 0 0 0 -.7.9c0 1-.6 1.1-1.4 1.1h-3.8a1.7 1.7 0 0 1 -1.5-.6 1.3 1.3 0 0 0 -1.9-.1c-1.4 1.1-1.9 1-2.5-.6a1.6 1.6 0 0 1 1.3-1.6c.2-.3.3-.5 0-.8s.4-3.1 2-3.9.2-1.2.6-1.6c.1.1.1.3.2.4 1.6.3 3.1 1.5 4.8.6a2.3 2.3 0 0 1 1.4-.2c4.2 0 8.4.1 12.6-.1 1.4 0 1.1.6 1 1.4a6.1 6.1 0 0 1 -1.1 2.1c-.5.5-.5 1.3-.8 1.8s-.4 3.2-1.8 4.2z"/><path d="m65.3 21.4c-.2-.1-.4-.1-.3-.3a1.2 1.2 0 0 1 1.9-.3c-.4.6-1.1.3-1.6.6z"/><path d="m40.6 27.4c.8.3.2.7.2 1.1l-.2-.3z"/><path d="m43.2 21.9c.1-.2 0-.5.3-.6s.2.1.2.1-.2.5-.5.5z"/><path d="m169.2 48.4a22.8 22.8 0 0 0 -.2-2.6c.3 1.1.6 2.1 2.2 1.8s.5 0 .6-.3.9-1 1.6-1 .7-.2.4-.7-.5-.4 0-.5.6-.1.8.3a6.1 6.1 0 0 1 .3 1.3c0 1.5 1.9 2.4 1.4 4.1.5-.2.2-.6.4-.8h.1c.6 2.2.6 2.2-1.7 2.2h-4.2c-.9 0-1.1-.4-1.1-1.1s.1-1.5-.6-2.1z"/><path d="m155.6 38.7h3.7c1.4.4 3-.1 4.4.3-.5.4-1.1.2-1.7.2h-6.4z"/><path d="m146.4 42.1a10.2 10.2 0 0 1 1.1-2.9c0-.1.1-.1.2 0s-1.1 2.4-1.1 3.7-.1-.5-.2-.8z"/><path d="m147.7 39.2h-.2a1.7 1.7 0 0 1 .7-1.6 4.1 4.1 0 0 1 -.2 1.6z"/><path d="m164 39c.1-.2.2-.2.2 0z"/><path d="m296.8 37.1v2.8c0 .2.1.4-.3.5s-.5 0-.5-.3-.8-.8-1.4-.9-1.9.4-2.9.3-.3.7-.4 1a12.2 12.2 0 0 1 0-5.7 24.6 24.6 0 0 1 .9-2.9c1.1-.2-.1 1.1.7 1s-.3-1.1.9-1.3a.2.2 0 0 0 -.1.3c.1 1.6.5 1.9 2 1.3s.4-.3.5 0 .6-.5 1.1.2v1.8a3.2 3.2 0 0 1 -.5 1.9z"/><path d="m307.3 31.1-.8-1c.7-.2 1.6-.2 1.7-1.2s.3-.4.4-.4a18.6 18.6 0 0 0 3.4-.7c.3-.1.4.2.6.4a10.4 10.4 0 0 1 .6 1.6.9.9 0 0 0 1.2.8c-.3.4-.2.8.1 1.3s.2 2.1-1.3 2.1a10.6 10.6 0 0 0 -2.5.2h3.7v.3a34.9 34.9 0 0 1 -4.6-.1c-.4-.1-1.4-.8-1.4-1.5a1.9 1.9 0 0 0 -1.1-1.8l.4-.5c-.2.2-.2.4-.4.5z"/><path d="m297.1 39.2v-2.1c-.3-.7.2-1.4.2-2.1a10.8 10.8 0 0 1 .2 4c0 .1-.3.1-.4.2z"/><path d="m291.3 41.3v1.3c-.6-1.1-.6-1.1 0-1.3z"/><path d="m253.5 51.8c-.3 1-1.1.8-1.8.8s-2.3-.2-3.5-.2-1.6-.2-1.6-1.5c.2-4.2.1-8.3.1-12.5v-1.3h.2v8.6h.3v-2a1.5 1.5 0 0 1 2.4.5c.3.4.4.9 1.1.9a.7.7 0 0 0 .5-.4c.2-.7-.4-.9-.8-1.2v-.3a1.2 1.2 0 0 1 1.5-.3c.5.4.3 1 .2 1.5.4-1.3 0-2.8.6-4.2.6.3.2.8.5 1.1v2.4a73.1 73.1 0 0 1 .3 8.1z"/><path d="m230.1 47.6v-6c.5-.6.3-1.4.3-2s.3-1.2 1.1-1.2a8.8 8.8 0 0 1 3.6.2 1.8 1.8 0 0 1 1.5 1.9c-.1 1.9.2 3.8.1 5.7s-.1 1 .3 1.4v4.2c-1-.9-.7-2.1-.8-3.2s-.2-3.3-.4-5c-.4-.1-.5.3-.5.5s-.8 1.6-2 1.4a4 4 0 0 1 -1.1 0c-1.1-.1-1.8.1-1.5 1.4s-.1.7-.6.7z"/><path d="m237 47.6c-.8-.1-.5-.7-.6-1.1s.2-3.8-.2-5.7-.6-2-2.1-2.1h-1.1c-.7 0-1.5-.2-2 .1s-.2 1.3-.3 2a1.2 1.2 0 0 1 -.6.8v-4.2a11.8 11.8 0 0 0 .5-3.7c.1-.8.3-1 1.1-1.1a11.5 11.5 0 0 0 3.2-.2c.8-.3 1.1.9 1.2 1.6a9.9 9.9 0 0 1 .3 3 3.5 3.5 0 0 0 .4 2.6 1.1 1.1 0 0 1 .2.8c-.4 2.4.2 4.8 0 7.2z"/><path d="m253.2 41.3c-.3-.1-.1-.5-.5-.8a12.4 12.4 0 0 1 -.6 4.7c-.3-.3-.2-.7-.2-1s-.4-1.2-1.3-.9c1 0 1.2.5 1.1 1.3s-.1.9-.7.9-1.4.1-1.6-.8-1.4-.9-2.2-1v-6.3a1.6 1.6 0 0 1 2.2-.4c1.7.6 2.2.4 3.1-1.2l.3-.3c.6.2.1.8.4 1.1z"/><path d="m253.2 36.6c-.3-.2-.1-.6-.3-.8-.5 1.5-1.8 2.4-2.8 2.1s-.5-.8-1.1-.8a2.9 2.9 0 0 0 -1.8.3v-5c.4-.5-.1-1.1.3-1.6a5.9 5.9 0 0 0 2.6-.4c1.3-.6 3.1 1 3.1 2.8s0 2.3 0 3.4z"/><path d="m234.9 52.3 2.1-.2c-.7.6-1.4.8-2.1.2z"/><path d="m223.8 35.5c-.8.3-.5.9-.4 1.4s.3.9 0 1.4-.3-.6-.4-.9-.2-.6-.9-.5-2.2.9-3.4.8-.6 0-.6.3-.8 2.3-.4 3.5.1.6 0 .6-.4-.2-.7-.3a1.7 1.7 0 0 1 -.1-1.2 9.3 9.3 0 0 0 0-4.4 2.2 2.2 0 0 1 .1-1.4l.5.7c0-1.8-.9-3-1.6-4.4a1.7 1.7 0 0 0 2.2-.8 1 1 0 0 1 1.1-1c.6-.1 1.1 0 1.3.7s.3.8.8.6a3.5 3.5 0 0 1 -.1-.6c1 .3 1.7.8 1.7 2s1.2 2.2.9 3.5z"/><path d="m204.4 36.1v-1a3.2 3.2 0 0 0 -.6 1.8c-.3-1-1.5-1.2-2.5-.4a1.2 1.2 0 0 1 -1 .6c-.8.1-1.3-.1-1.1-1a9 9 0 0 0 -.3-1.6c0-.8.2-1.5 1-1.7s.2-.1.2-.2c1.2-2.5 3.5-1.6 5.4-1.9.3 0 1.1-.1.6.7s.1.7.2 1a2.5 2.5 0 0 0 -1.1 2.5 19.5 19.5 0 0 1 -.2 2.3c-.7-.2-.2-.9-.6-1.1z"/><path d="m217 34.8a20.6 20.6 0 0 1 0 7c-.3.9-.3 2-1.1 2.7a19.8 19.8 0 0 0 .6-10.5c.3.1.4.5.5.8z"/><path d="m224.1 40.5c-.6-1.6-.1-3.3-.3-5 .6 1.7.2 3.4.3 5z"/><path d="m198.1 37.6c.4 0 .8.1.8.6s-.4.5-.8.5z"/><path d="m221.2 30c-.5-.2-.6-.5-.5-1.1a1.1 1.1 0 0 1 .5 1.1z"/><path d="m198.6 35.8c.2.4.4.7.2 1.1l-.4-.6c0-.2 0-.4.2-.5z"/><path d="m198.4 40c-.1.5.2 1-.3 1.3s-.2-.9.3-1.3z"/><path d="m263.7 43.4v-2.1a38.5 38.5 0 0 0 .2-4.8c0-.7-.1-1.4 1-.9a.7.7 0 0 0 .8-.3 3.8 3.8 0 0 1 2.3-1.1 1.6 1.6 0 0 1 2.1 1.3c.1.6 0 1.2.5 1.6v6.3c-.8 0-.8-.5-.9-1a2.7 2.7 0 0 0 -.2-1.3c-.2-.3-.4-.6-.7-.2s-1.4.6-2.1 1-2 .5-2.5 1.6-.3 0-.5-.1z"/><path d="m270.6 37.1c-.7-.1-.8-.6-.8-1.2s-.5-1.5-1.9-1.2a2.6 2.6 0 0 0 -2.2 1.3c-.2.4-.6.5-.9 0s-.3-.5-.6-.3-.2.5-.2.7v3.7c0 .4.1.9-.3 1.2.2-3.1-.2-6.2.3-9.3 0-.1-.2-.2-.3-.4s.3-.7.1-.6-.8-1.1-1.4-1.4a.4.4 0 0 1 .1-.8.6.6 0 0 1 .9.3c.1.3.1.6.2.9s.7 1.1 1.4.2 1.4-.4 2.1-.4 1.2-.1.8-1.1.1-.4.3-.5.5-.1.6.3a19.3 19.3 0 0 0 1.1 3.4c.9 1.8.5 3.5.7 5.2z"/><path d="m263.7 43.4a.5.5 0 0 0 .6-.6c0-.2 0-.6.3-.6s1.6-.6 2.4-.8 1.4-.1 1.6-1.1.5-.2.8 0a2 2 0 0 1 .6 1.8c0 .5-.1 1 .6 1.3v5c-.9.3-1.2-.3-1.5-.9a3.3 3.3 0 0 1 -.4-1.3c-1.5.1-2 1.6-3.4 2s-.6.4-.7.9-.2 1-.9.6z"/><path d="m263.7 49.7a4.9 4.9 0 0 1 2.5-2.4c.5-.3.8-1 1.7-1s.5-.3.6-.7 0-.5.4-.5.3.4.2.7.1 2.2 1.5 2.6-.1 2.1 0 3.2-.3 1.1-1.1 1h-4c-1.6 0-1.8-.1-1.8-1.7z"/><path d="m255.9 25.6c1.3-.5 2.3-1.6 3.9-1.3s.5 1.2-.1 1.6a1.2 1.2 0 0 1 -1.7-.1c-.9-.8-1.5.1-2.1.3z"/><path d="m253.5 51.8a73.1 73.1 0 0 1 -.3-8.1h.1c.2 2.6.7 5.2.4 7.8a.2.2 0 0 1 -.2.3z"/><path d="m254.8 27.1a1.4 1.4 0 0 0 .8-.7 1.6 1.6 0 0 1 1.3.4c-.8-.3-1.2 1.2-2.1.3z"/><path d="m247.5 30.8c-.1.5.2 1.1-.3 1.6s-.7-1.2.3-1.6z"/><path d="m263.7 31.6c0 .2.1.6-.2.6s-.2-.2-.1-.4z"/><path d="m82.6 35.3c-.6 0-.6-.7-.6-.8-.1-2-1.3-3.5-1.5-5.4a2.4 2.4 0 0 0 -1-1.9 1.4 1.4 0 0 1 -.4-1.7c.3-.7.8-.7 1.4-.7h16.5c.7 0 1.4.1 1.9-.6s.4 0 .5.1a9.9 9.9 0 0 1 1.1 3.3 1.1 1.1 0 0 0 .1.5 15.3 15.3 0 0 1 2.2 5.3 7.1 7.1 0 0 1 -4.3.3 4.9 4.9 0 0 0 -2.4 0 33.7 33.7 0 0 1 -5.5.1 15.7 15.7 0 0 1 -5.3-.4c-.6-.2-1.2.1-1.9 0s.4 1.7-.8 1.9z"/><path d="m82.6 35.3c0-.5-.1-1.2.7-.5s.1-.1.1-.2.5-2.1 2.1-1.6c3.4 1 6.9.6 10.3.3s4.7.6 7 .1c.6.2.3.8.6 1.1v.5c-.6.7 0 1.2.3 1.6a3.5 3.5 0 0 1 1.2 3.1c.3 1.5-.3 2.1-1.7 1.8l-1.3-.2c-1.1.2-1.8-.2-1.7-1.4s-.6-.6-1-.7a1.4 1.4 0 0 1 -.9.5 10.2 10.2 0 0 1 -4.9-.5h-.5c-1.9 1.3-4 .9-6.1.8s-1.3-.3-1.4.9-.6.1-.9-.1v-.3c-.5-.3-.1-.9-.6-1.3s-.1-1.7-.7-2.5a5.9 5.9 0 0 1 -.6-1.4z"/><path d="m84.5 40.8.7.3c.1-.4-.2-.7-.2-1s.1-.8.7-.6a16 16 0 0 0 7.2-.3 2.3 2.3 0 0 1 -2.5 2.3c-1.2 0-2.5.4-3.8.3s-.5 1.3-1.1 1.6-1.3-1.5-1-2.6z"/><path d="m83.9 39.2c.9.2.4.9.6 1.3s-.5-.8-.6-1.3z"/><path d="m103.4 34.5-.6-1.1c.2.1.4-.6.5.1a3.4 3.4 0 0 1 .1 1z"/><path d="m161.9 114-.3-1.3c.2-.1.4-.3.3-.5-.8-1.9-.7-3.9-1.3-5.8a5.4 5.4 0 0 1 -.4-3.1c.1-.2.2-1.1-.7-.8s-.1-2.4-.2-3.6-.1-.8.4-.8a14.5 14.5 0 0 1 3.6 0c.9.2.1 1.2.6 1.7a1.2 1.2 0 0 0 .9-1.5 27.3 27.3 0 0 0 1.7 7.5c.7-.2.7-.6.9-1a20 20 0 0 0 .5-2.6c.2-.2.5-.4.3-.8a1.7 1.7 0 0 1 .3-1 1.5 1.5 0 0 0 .2-1.6l.5-.8c.4-.4 0-.9.3-1.3l.3-.5c1.1-.6 2.1-1.3 3.5-.7s.6-.8.7-1.5.9 1.1.4 1.8a3.4 3.4 0 0 0 -.1 2 9.5 9.5 0 0 1 -.5 2.3c-.2 1.2-1.1 2.1-1 3.4s-.6 1.5-.4 2.4c-.4.4 0 .9-.3 1.3l-2.1 9.4c-2.3-.1-4.7.3-7-.2-.7-.1-.5-.4-.6-.8a.9.9 0 0 0 0-.7c-.5-.5.1-1.2-.2-1.8s-.2.2 0 .1h.1c-.1.3.2.8-.4.8z"/><path d="m181.6 89.1a3.7 3.7 0 0 0 .5 2.3 4.1 4.1 0 0 1 .5 2.7c.4-.1 1-.7.8.3a4.6 4.6 0 0 0 .5 2.3.7.7 0 0 0 -.1.5c-.1.3.2 1-.4.9s-1.2-.1-1.1-.9l.3-1c-1.7.1-1.7.1-2.4 1.3s-.5-.6-.7-.9-.4 0-.5.1c-.3.1-.1.7-.6.6.6-1.4-.2-2.5-.4-3.8s0-1.8 1.5-1.8 1.4-.4 1.2-1.4.5-1.8.4-2.8.1 1.1.5 1.6z"/><path d="m183.4 41.3c-.5-.5-.1-1.2-.5-1.8v6.5c-.4-.3-.2-.9-.3-1.3-.2-4.4.4-8.8.3-13.2 0-2 0-2-2-2h-.9a2.7 2.7 0 0 1 -.6-1.7c0-.8.3-1.2 1.2-1.5a24.2 24.2 0 0 1 7.6-.5 2.5 2.5 0 0 0 1.1-.4c1.5-1.1 3.1-.9 4.8-.6l.3.2c0 1.3.5 2.4.2 3.7s-.3.9-.9.8h-2.9c-.6 0-.9.1-.9.9.1 4.3.1 8.7.1 13-.5.6-.1 1.2-.5 2.2v-6.6a5.9 5.9 0 0 1 -.3-3.9c.1-1 .1-2 .1-2.7v2c-.7.3-.6-.3-.7-.6a6 6 0 0 1 .1-2.3c-2 .5-4.2-.2-4.3-1.6-.2 1.2.8 2.3-.4 3.1h-.4c-.1-.6 0-1.2-.1-1.8s0 1.3.1 2a26.1 26.1 0 0 1 .2 4v2.1c0 .7.2 1.5-.4 2.1z"/><path d="m183.4 41.3v-2.1c.7-.6.3-1.5.4-2.2a8.8 8.8 0 0 1 .2-1.6.3.3 0 0 1 .3-.3c.2-.1.3.1.4.2s0 1.3.8 1.4a4.5 4.5 0 0 0 2.5-.9l.3-.3c.2-.2.3-.5.6-.4s.3.5.3.8 0 2-.1 3a4.9 4.9 0 0 0 .1 2.4v1.2c0 1.1-.4 1.7-1.7 1.8s-2.5 0-3.3 1.2c.2-1.5-.5-2.8-.8-4.2z"/><path d="m189.2 41.3c-.6-1.2-.2-2.5-.3-3.7v-2.3a4.3 4.3 0 0 1 -3.9 1.8c-1-.3-.2-1.3-.8-2v3c0 .6-.1 1.1-.8 1.1v-2.1c.4-1.4-.1-2.8.3-4.2s.5-.7.5-1.1v-2.1c.6 1.3 3 2 4.6 1.4.4 1.1-.2 2.3.4 3.4a16.9 16.9 0 0 1 0 4.5z"/><path d="m189.2 39v-7.9h.3v7.9z"/><path d="m184.2 45.5a1.1 1.1 0 0 1 -.4.9c-.2-.5-.1-.8.4-.9z"/><path d="m168.7 98.8c.6.6.5 1.3-.2 1.6a2.2 2.2 0 0 1 .2-1.6z"/><path d="m169.5 96.7a3.9 3.9 0 0 0 .2 1.5c0 .1-.1.3-.3.2s-.1-.3-.2-.4-.1-.9.3-1.3z"/><path d="m163.5 91.7-.5-.2c-.4-1-.8-1.4-1.4-.2a1.2 1.2 0 0 1 -1.1.4c-.7 0-1.5-.2-1.6.9s-.4.4-1-.8a1.7 1.7 0 0 0 -.2 1.2 3.7 3.7 0 0 1 -.5-2.5c.2-.8-.9-1.4-.2-2.4s-.5-.4-.9.1a10.1 10.1 0 0 0 .2-4.9 3.5 3.5 0 0 1 .6 2.5c.7-2 2.1-1.9 3.3-1.6s1.9 2.5 2.3 4.1c.3 0 .1-.4.4-.5a4.4 4.4 0 0 0 .6 2.5 1.1 1.1 0 0 1 0 1.4z"/><path d="m218.1 51a2.2 2.2 0 0 0 -1.6.9 1 1 0 0 1 -1 .5 49.3 49.3 0 0 1 -7.6.5c-.1-.4.2-.2.3-.3s0-.3-.1-.2h-1.3c-.2 0-.6 0-.5-.3s.4 0 .5-.3-1.4.4-1.5-.7c-.8.5-1.4-.9-2.2-.2s.9-.9-.2-1.2.4-.8.9-.8 1.6 0 1.7-1.3 2.1-.4 2.9.3.7.6 1.3.1a20 20 0 0 1 3.4.2c.3.1.5-.1.7-.3s.7-1.1 1.5-1-.7-.5.2-.8 1.8-1.9 1.8-3.5a1.4 1.4 0 0 1 .1 1.4c-.5 1.2.4 1.6 1.1 1.8s1.5.5 1.7-.6 1-.5 1.5-.6.8 0 .9.4a1 1 0 0 1 -.4 1.2c-.8.7-.9 1.6-1.3 2.3a4.1 4.1 0 0 1 -2 1.9c-.3.3-.6.3-.8.6z"/><path d="m223.1 39.2c.1.2.2.3.2.4s-.1.1-.2.2-.2-.1-.2-.2.1-.2.2-.4z"/><path d="m277.4 52.1c0-5.7-.1-11.5.1-17.2.1-3.3.2-6.6 0-9.9 0-.4 0-.5.5-.6 2-.2 4-.1 6-.1s.8.4.7 1v7.6c-1 .1-1.4-.1-1.2-1.3s0-2.6.1-3.9c0 1.2-.1 2.3 0 3.5s-.5 1.2-1.3 1.3a7.8 7.8 0 0 0 -3 .4c-.5.1-.8 0-.7-.7v-2.3a25.5 25.5 0 0 0 .2 3.9c.1.8.4 1.7-.6 2.3s.1.7.1 1a2 2 0 0 0 -.1.7 2.5 2.5 0 0 0 -.2 1.2c.1 3.4-.4 6.7-.2 10.1a1.3 1.3 0 0 1 -.1.6c-.2.8.2 1.6-.3 2.4z"/><path d="m277.9 37.1v-1.8c.4 0 .2.4.5.5v-6.8h.3v3.7a6.5 6.5 0 0 1 3.3-.6c1.1.1 1.5-.3 1.4-1.3a17.1 17.1 0 0 1 .3-3.9c0 1.5.1 3 0 4.5s.1 1.4 1 1.5v12.6c-.8.1-.7-.4-.8-1s.3-2.2-.2-3.2a2.4 2.4 0 0 1 -.3-2 4.6 4.6 0 0 0 .1-1.7c.1 1.6-.2 1.9-1.4 2h-2.5c-1.5 0-1.8-.2-1.6-1.7s.1-.5-.1-.8z"/><path d="m277.9 37.1.2.2c.4 1.9.4 1.9 2.4 1.9h1c1.8 0 1.8 0 2.2-1.8v7.8h-.3v-3.1c0 1.1-.6 1.6-1.7 1.6s-.5.2-.5.4-.8 1.3-1.7 1.1-.3-1-.8-1.6v1.9c-.4-.3-.2-.8-.3-1.2s.1-.8-.5-.9a28.1 28.1 0 0 1 0-5.8z"/><path d="m277.9 37.6v10.9c0 .4.1.9-.2 1.2 0-3.6-.1-7.1 0-10.7 0-.5-.2-1 .2-1.4z"/><path d="m278.8 45.4a3.1 3.1 0 0 1 0 1.9z"/><path d="m297.3 35c.2.7-.2 1.4-.2 2.1h-.3a5.4 5.4 0 0 1 .5-2.1z"/><path d="m205.7 43.4a14.5 14.5 0 0 0 1.9 2.9c-1.2-.2-1.5-1.3-2.1-2.1a1.1 1.1 0 0 0 0-.8c.1-.1.1-.1.2 0z"/><path d="m172.7 40.8c.2 0 .3-.7.6-.1a3.3 3.3 0 0 1 .1 1.4z"/><path d="m172.1 41.3c.6.1.7.5.8.9s-.8-.4-.8-.9z"/><path d="m167.6 43.7c-.4.5-.6.6-.9.3a.5.5 0 0 0 -.1-.3z"/><path d="m247.2 115.3v-32c.7-1.3 1.8-2.4 2.4-3.9s1.2-.7 1.9-.2a4 4 0 0 0 1.7.9c.6.1.8.5.8 1.1v33c0 1.9-.1 2-2 2.1h-3.4c-.6-.1-1.2-.2-1.4-1z"/><path d="m247.2 115.3a1.5 1.5 0 0 0 1.4.6 24.1 24.1 0 0 1 3.8 0c1.1.1 1.4-.3 1.4-1.4-.1-7.5 0-14.9 0-22.4 0-3.4-.1-6.9 0-10.3 0-.9-.1-1.5-1.2-1.4s-.8-.4-1.2-.8-1.6-.6-1.7.2-1.4 2.5-2.5 3.5v-5.9c0-.9.2-1.2 1.2-1.2h4.5c1.2-.1 1.4.4 1.4 1.4v39.1c-1.9 0-3.8-.1-5.7 0s-1.4-.4-1.4-1.4z"/><path d="m205.7 43.4h-.2a5.8 5.8 0 0 1 -.6-2.6c-.2-.4 0-1-.1-1.4a3.3 3.3 0 0 1 -.1 1.4c-.1.2-.3.2-.3.1v-4.8c.3.1.2.5.5.9s.2-1.4-.1-2.2a3 3 0 0 1 .9-2.5h.6a18 18 0 0 0 -.6 11.1z"/><path d="m204.7 40.8v-1.3h.2v1.3z"/><path d="m232.5 115.3v-.2a59.3 59.3 0 0 0 .1-7.3 9.7 9.7 0 0 0 0-1.7v-3.9a6.2 6.2 0 0 0 .1-3.8c0-.1-.1-.3-.1-.4v-2.5c.1-2.8 0-5.5.1-8.2s1.6-3.4 4.9-2.9 2 .5 2 2.3v27a3.3 3.3 0 0 0 0 1.4c.2.1.1.2 0 .3a1.5 1.5 0 0 1 -1.4.8h-4.2a1.8 1.8 0 0 1 -1.5-.9z"/><path d="m239.6 115.1c-.5-.5-.3-1-.3-1.5v-26.7c0-1.3-.1-2.2-1.7-2.1a2.5 2.5 0 0 1 -1.2-.2c-2.2-.1-2.4 0-3.1 2.2a.6.6 0 0 1 -.5.5c-.4-.6 0-1.3-.3-1.9v-.8a34.7 34.7 0 0 0 .1-5.6c.1-2.4 0-2.4 2.3-2.8h.5l.3.3c0 .3 0 .3.1.3a5.5 5.5 0 0 1 3.8 0c.2 12.2.1 24.4.1 36.6a3.2 3.2 0 0 1 -.1 1.4z"/><path d="m239.6 114.8v-31.6c0-1.6-.4-3.3-.3-4.9s0-1.1.3-1.5.2.9.2 1.3v35.4c0 .4.2.9-.2 1.3z"/><path d="m232.5 115.3a10.8 10.8 0 0 0 7.1.1c.3 1-.1 1.3-1.2 1.3s-3.9 0-5.9 0a3.3 3.3 0 0 0 0-1.4z"/><path d="m234.9 76.2a.7.7 0 0 1 -.7.3c-1.1 0-1.5.6-1.4 1.6v5.3c0 .4.1.9-.3 1.2v-6.7c0-1.7 0-1.7 1.7-1.7z"/><path d="m239.6 76.8a13.7 13.7 0 0 0 -3.5.2c-.6.1-1 0-.7-.8h3.2c.4 0 .9-.1 1 .6z"/><path d="m232.5 85.4c.5.6.2 1.2.3 1.9v8.4h-.3z"/><path d="m232.8 106.2c0 2.4-.1 4.8 0 7.2 0 .5-.3 1.1.3 1.4s.1.2-.6.3v-8.9q.2-.3.3 0z"/><path d="m232.8 106.2h-.3v-7.9h.3a5.9 5.9 0 0 1 0 3.7z"/><path d="m232.8 98.3h-.3v-2.6h.3z"/><path d="m65.3 21.4a5.2 5.2 0 0 1 1.6-.6c-.3 1-1.1.4-1.6.6z"/><path d="m179 96.7c0-.4-.2-.9.4-1.2l.7 1.9c.3-.6-.1-1.6.9-1.5h2.1a1.8 1.8 0 0 0 -.4 1.8c.4-.1.2-.6.6-.7s-.3.6.1.9 0-.9.5-1.2a8.6 8.6 0 0 0 .5 2.7c.4 1.3.4 2.7.7 4.1s.3 1.3 1 1.6.6-.6.8-1.1 1.2-3.3 1.2-5.2v-1c.1-.3.4-.5.2-.8l.8-2.7c.5-.2.6 0 .6.5s-.7-1.8.1-2.6a20 20 0 0 1 3.5-.9c1.4-.3 2 .1 2.4 1.2v1c-1 .3-.1 1.2-.5 1.6v.3a1.5 1.5 0 0 0 0 1.3l-.2.3c-.3.5-.9.9-.6 1.5a25.7 25.7 0 0 0 -.5 4c-.6 0-.2-.5-.4-.7a2.5 2.5 0 0 0 .2 1.2l-.3.8c-.2.1-.3 0-.4-.2v.2c.1.4.4.8.1 1.3v.5c-.7-.3-.9 0-.7.6a4.2 4.2 0 0 1 -.7 3.8 2.6 2.6 0 0 0 -.2 2.7c-.2 1.3-.5 2.6-.8 3.9-2.5 0-5 .3-7.5-.2 0-1-.6-2-.1-3.1-1.5-.9-.1-2.9-1.4-3.9s-.1-1-.1-1.5.9-.4.2-.8-.3.6-.7.6a3.8 3.8 0 0 1 .1-1.5c.2-.7.3-1.4-.7-1.6a1.5 1.5 0 0 1 -.3-1.3 5 5 0 0 0 -.5-3 5.7 5.7 0 0 1 -.2-2.2c0-.6.1-1.1-.5-1.4z"/><path d="m178.4 97.3.6-.6a24.4 24.4 0 0 0 -.1 2.7 4.1 4.1 0 0 1 -.5-2.1z"/><path d="m195.8 92.5a3.7 3.7 0 0 0 -2.4-.8c-1.1.1-2.2-.2-3 1s-.4-.2-.4-.5a2 2 0 0 0 .1-1.5 2.5 2.5 0 0 1 -.4-.7v-.3c.2-.2.5-.4.3-.8v-.5a1.1 1.1 0 0 0 .2-.8v-.6a20.7 20.7 0 0 0 1-3.3c.4-1.2.7-1.3 1.5-.4a1.4 1.4 0 0 0 1.8.2 15.2 15.2 0 0 1 2-.6c.8-.2 1 .1 1 .8a34.1 34.1 0 0 1 -.5 4.6c-.9.7-.6 1.7-.8 2.5s-.1.6-.5.4-.2-.5-.1-1-.2.2-.1.2-.3.8.2 1.1z"/><path d="m197.1 88.3v-5.2c-1 0-1.9.9-3.1 1s-1.5 0-1.8-1.5c-.5 1.4-1 2.6-1.4 3.9s-.3.5-.5.5c.3-2.4 1-4.6 1.3-7s.9-1.8 2.2-1.7 3 0 4.4 0 1 .2.8 1a22.2 22.2 0 0 0 -1.1 5.6 13 13 0 0 1 -.8 3.4z"/><path d="m189.7 89.9a.8.8 0 0 1 .5.5 2.6 2.6 0 0 1 -.1 1.5c-.3.3-.5 0-.6-.2a3.7 3.7 0 0 1 .2-1.8z"/><path d="m190.2 87.5c.5.4.3.7-.2.8s-.1-.6.2-.8z"/><path d="m190 88.8c.4.5.3.7-.3.8z"/><path d="m194.4 25a22.5 22.5 0 0 0 -2.6 0c-1 .2-1.9 0-2.6 1s-.6.3-.9.2a38.5 38.5 0 0 0 -4.8-.1c-.7 0-1.3-.1-1.8.6s-.4.2-.7.2-.9-.6-1.1 0a1.5 1.5 0 0 0 0 1.6 1.8 1.8 0 0 1 .1 1h-1.5a25.7 25.7 0 0 1 .1-4.8c.1-.5.5-.4.7-.4a17.7 17.7 0 0 1 2.3 0c1 .1 1.3-.3 1.3-1.2v-5.4a1.4 1.4 0 0 1 1.1-.3c1.3.1 2.6 0 3.9 0s1.8.1 1.8 1.9v3.4a.6.6 0 0 1 -.1.4c.1.3-.7-.2-.4.4s.3.7-.2 1.1a5.3 5.3 0 0 1 1.2-.3h4.2z"/><path d="m189.5 23.2v-4.3c0-.8-.2-1.3-1.3-1.2s-3.5 0-5.3 0c0-.5.4-.5.7-.5h5.4a1 1 0 0 1 1 .5 33.9 33.9 0 0 0 -.2 4.5c0 .3.4.9-.3 1z"/><path d="m189.5 23.2c.5-.9.1-1.9.2-2.8s-.2-1.8.3-2.7v6.6c-1 0-.7-.6-.5-1.1z"/><path d="m189.5 23.2c0 .4-.2 1 .5 1.1h.2l-.5.3c-.4 0-.6.7-1 .3s0-.7.5-.7-.3-.7-.2-1 .3.1.5 0z"/><path d="m86.7 46.4.4.7h-.4c-.2-.1-.2-.3 0-.7z"/><path d="m56.9 39.2a.4.4 0 0 1 -.1-.7c.3-.4.6-.2.9-.1s-.3.8-.8.8z"/><path d="m57.7 38.2c-.1-.4-.5-.7 0-1.1a.7.7 0 0 1 0 1.1z"/><path d="m57.9 36.6c0-.4.2-.6.6-.8s-.3.6-.6.8z"/><path d="m40.9 81.7c-.7-.4-.9.5-1.3.4s-2.8 1.2-4.4 1-5.8.2-8.8.2c-1.5 0-3-.4-4.6 0a1.2 1.2 0 0 1 -1.4-.6c-.3.3-.3.8-.8.9a1.1 1.1 0 0 1 0-1.1c.4-.3.4-.8.6-1.3a10 10 0 0 0 1.3-3.4c.3-.4 0-1.1.7-1.3s.4.1.4-.4-.1-1.4 1.4-1.3a76.3 76.3 0 0 0 8.3.1 1.1 1.1 0 0 0 1.2-.8.8.8 0 0 1 .8-.7c.4-.1.7.2.8.6s.8.9 1.5.9a15 15 0 0 0 3 0c1.2-.3 2 .6 3 .7s.3.9.4 1.4 0 1.1 0 1.6-.9.7-.9.8-.6 1.7-1.2 2.3z"/><path d="m21.5 77.8a4 4 0 0 1 -1.3 3.4 10.9 10.9 0 0 1 1.3-3.4z"/><path d="m19.1 84.1c.3 0 .6.1.4.5s-.4.1-.7 0a.5.5 0 0 1 .3-.5z"/><path d="m20.2 81.2c-.1.5 0 1.1-.6 1.3a2.5 2.5 0 0 1 .6-1.3z"/><path d="m101.8 87c.2 0 .5.1.4.4l-.3.4v-.8z"/><path d="m195.2 95.1a2 2 0 0 1 0-1.7c.3-.4.4.2.5.1s0 1.2-.5 1.6z"/><path d="m193.1 105.1c.1-.6-.4-1.2-.2-1.9l.5.6c-.1.4.2.9-.3 1.3z"/><path d="m195.8 91.5c-.3 0-.6.2-.5-.3a8.9 8.9 0 0 1 .3-1.4c.3.5.1 1 .2 1.4z"/><path d="m193.7 103c-.8-.6-.1-1.2-.2-1.8s-.1.9.4 1.3a.8.8 0 0 0 -.2.5z"/><path d="m194.4 98.5c-.6-.7 0-1.1.6-1.5z"/><path d="m195.2 96.7a.9.9 0 0 1 0-1.3z"/><path d="m40.4 84.6c-.6-.7-1.2-1.5.1-2.3.1.7-.9 1.3.1 1.8s-.2.3-.2.5z"/><path d="m39.3 88-1.2-.3a1.6 1.6 0 0 1 1.5.1z"/><path d="m172.1 107.2c0-.5-.3-1 .3-1.3s.2.9-.3 1.3z"/><path d="m161.9 114c.4-.2.1-.7.4-1s-.3 1.9 1 2.2c-.3.2-.7.1-.9.4a2.4 2.4 0 0 1 -.5-1.6z"/><path d="m189.5 91.7.5.3c.1 0 .1.1.1.2h-.1c-.6.7.1 1.4 0 2.1s.1 1-.2 1.5.4-1.3-.6-1.5a7.4 7.4 0 0 0 .3-2.6z"/><path d="m188.4 97c.4.4.3.6-.2.8a1.9 1.9 0 0 1 .2-.8z"/><path d="m93.4 39.2c1.9-.2 3.8.6 5.8 0a7 7 0 0 0 -.3 2.9c0 .6-.2 1.2-.8 1.2s-.8-.5-.8-1.1-.4-1-1.1-.8-2.2.4-2.6-1.7c0-.2-.1-.3-.2-.5z"/><path d="m87.3 43.7a.3.3 0 0 1 -.3.3c-.2.1-.3-.1-.3-.3s.1-.2.2-.2.3 0 .4.2z"/><path d="m163.7 39c-1.5-.2-3 .2-4.4-.3 1.5.1 3-.3 4.4.3z"/><path d="m133.4 123.2c-1 0-1.7-.7-2.6-.5a.3.3 0 0 1 -.3-.5.5.5 0 0 1 .5-.5h3.1c.2 0 .5.2.3.3s.1 1.6-1 1.2z"/><path d="m16.5 128.5-1.4.2c1.1-1.1 1.1-1.1 1.4-.2z"/><path d="m307.3 31.1c0-.5.1-.9.9-.7s-.4.7-.9.7z"/><path d="m99.1 26.5c0-.6-1-.8-.4-1.5s.3-.2.5 0 .4 1-.1 1.5z"/><path d="m183.7 32.9c-.2 1.4.3 2.8-.3 4.2v-4.2a.2.2 0 0 1 .3 0z"/><path d="m182.3 28.9c-.3.5-.7.3-1.3.4s.8-.7 1.3-.4z"/><path d="m183.7 32.9h-.3v-2h.3z"/><path d="m157.2 86.9-.3.2c-.1.1-.2-.1-.2-.2l.3-.3z"/><path d="m204.1 50.2-.2.2c-.1-.1-.2-.2-.2-.3s0-.2.2-.2z"/><path d="m283.1 24.6a1.7 1.7 0 0 1 -1.4.1 1.7 1.7 0 0 1 1.4-.1z"/><path d="m232.8 102v-3.7a3.5 3.5 0 0 1 0 3.7z"/><path d="m190 92.2v-.2a2.9 2.9 0 0 1 .2-1.6c.5.7.5 1.3-.2 1.8z"/></g></svg>