<svg viewBox="0 0 342.7 104.6" xmlns="http://www.w3.org/2000/svg"><g fill="#08ffe1"><path d="m104.6 52.5a52.3 52.3 0 1 1 -51.9-52.5c28.6.1 51.9 23.7 51.9 52.5zm-57.2-1.6c6.6-6.6 15.4-5.3 20.1-.8a14 14 0 0 1 1.9 18.4 13.6 13.6 0 0 1 -8.7 5.7c-5.2 1-9.6-.6-13.3-4.3l-4.6 4.2c4.6 5.9 14.2 8.4 21.6 5.8s14.2-10.8 14.1-19.6a20.8 20.8 0 0 0 -14.4-19.5c-8.5-2.6-17 .6-21.3 5.9zm14.4-20.6c-5.6-6.5-15.2-8.5-23.3-5.1a20.5 20.5 0 0 0 3.4 38.8c8.2 2 16.4-1.7 19.8-6.3l-4.6-4.2a14 14 0 0 1 -10.4 4.6 13.3 13.3 0 0 1 -10.4-4.6 14.1 14.1 0 0 1 8.2-23.4 14 14 0 0 1 12.6 4.5z"/><path d="m329 47.9v-18.3c0-1.6-.7-2.5-2.4-2.5l-1.9-.2v-.8h13.8c-.1 1.8-.2 3.6-.2 5.5-.1 13.9-.1 27.7-.1 41.5 0 2.3.8 3.5 3.2 3.4.4-.1.9.2 1.3.9l-12.6.4c-.4 0-1-.9-1.1-1.4s0-2.4 0-4.2c-2 3.6-4.4 5.8-8.1 6.1a13.6 13.6 0 0 1 -10.4-3.3 4.3 4.3 0 0 1 -1.2-1.1c-6-7-5.4-20.1 1.2-26.6a14.3 14.3 0 0 1 8.9-4c4-.2 7.2 1 9.6 4.6zm-14.2 13.5a120 120 0 0 0 1.9 12.1c.9 3.3 3.7 4.4 6.6 2.9a8.5 8.5 0 0 0 3.7-3.8 25.3 25.3 0 0 0 1.7-7.8c.5-5.3.8-10.6-1.2-15.8a6.3 6.3 0 0 0 -6.1-4.4c-2.7.1-4.4 1.6-5.1 5.1a116 116 0 0 0 -1.5 11.7z"/><path d="m243.2 58.6a5.4 5.4 0 0 0 5.9-1.8c2-2.3 4.1-4.5 6-6.9s1.8-3.9-1.6-4.7a1.2 1.2 0 0 1 -.9-.8h11.6c-1.9 1.4-4.2 2.7-6.1 4.4a82.7 82.7 0 0 0 -5.6 6.1c4.4 6.6 8.7 13.2 13.2 19.7.8 1.1 2.5 1.6 3.8 2.5h-18.2v-.2l1.1-.5c2.6-.3 3-.9 1.6-3.1-2.4-3.9-4.7-7.9-7.3-11.7-.6-.9-1.9-1.4-2.9-2.1l-.5.6c0 4.8-.1 9.5.1 14.3 0 .6 1.1 1.5 1.9 1.9s1.7.2 2.5.8h-19a5.3 5.3 0 0 1 1.5-.6c3.5-.5 3.7-.6 3.7-4.1v-41.1c0-3.7 0-3.7-3.6-4.2-.3-.1-.5-.3-.7-1h13.6z"/><path d="m134.3 77.6v-14.7l.5-.2a18.7 18.7 0 0 1 .7 2.2 14.9 14.9 0 0 0 21.3 10.9 8.1 8.1 0 0 0 5-7.3 6.9 6.9 0 0 0 -4.5-7.2c-3.6-1.6-7.4-2.9-11-4.4l-4.4-1.9c-6.3-3.2-8.9-8.5-7.7-15.1s6-10.6 12.7-11.4a20.7 20.7 0 0 1 11 1.5c3.3 1.5 3.3 1.5 5.4-1.7v14.4h-.5a18 18 0 0 1 -.6-2.2c-1.7-9.5-10.9-14-19.4-9.5a7.3 7.3 0 0 0 -4.1 6.7c-.1 3.1 1.1 5.4 3.9 6.6s7 2.8 10.5 4.3a52.7 52.7 0 0 1 7.9 3.9c5.1 3.3 6.3 8.3 5.3 14s-5.1 9.9-11.2 11.2a24.2 24.2 0 0 1 -15-1.5c-3.6-1.5-3.6-1.6-5.8 1.4z"/><path d="m227.6 74.8c-.7 2.2-2.4 3-6 3.3s-6.6-.7-8.5-4.5c-3.2 5.1-7.9 5.5-13.1 4.2s-6.4-4.4-6.3-9.2 2-6.7 6.7-7.6a65.4 65.4 0 0 1 8.9-.9c1.2-.1 2.4 0 3.5 0 0-4.5.2-8.6-.1-12.7-.2-2.2-2.3-3-4.5-3s-5.5.8-6.2 3.2a21.2 21.2 0 0 0 -.6 4.4c-.1 2.6-1 3.6-3.2 3.4s-2.8-1.4-2.5-3.8a8 8 0 0 1 5.1-6.7 21.9 21.9 0 0 1 16.5-.2c2.8 1.1 4.6 3.1 4.7 6.1.3 5.3.3 10.6.3 15.9.1 2.3-.1 4.5 0 6.7s1.5 3.8 4.1 2.1zm-14.1-13.8c-2.6.1-4.5.1-6.5.3s-3.6 1.3-3.8 3.1a49.2 49.2 0 0 0 0 9.4c.3 2.1 2.1 2.9 4.2 2.7s4.8-2.2 5.3-5.6.5-6.3.8-9.9z"/><path d="m279.1 60.1c.7 4.3.9 8.2 2 11.9s5.7 6.3 10.6 4.5 5.8-4.2 6.7-8.1c.2-.7 1.1-1.2 1.6-1.8s1 1.6.9 2.4c-.7 4.4-5.1 8-10.8 9.1-9 1.6-17-2.8-19.5-10.7-2.8-9.4 1-19.2 9-22.7a17 17 0 0 1 13.1-.4 12.5 12.5 0 0 1 8.3 13.5c-.3 2.1-1.7 2.3-3.3 2.3zm0-1.2c4.1 0 7.5.2 10.9-.1a2.7 2.7 0 0 0 1.9-2.1 44.1 44.1 0 0 0 -.5-8.1c-.3-2.2-1.4-4-4.1-4.2s-5.1.7-5.9 3.4-1.5 7.2-2.3 11.1z"/><path d="m191.9 74.5c-.7.7-1.2 1.7-2 2a21.2 21.2 0 0 1 -6.8 1.7c-6.2.1-8.8-2.4-8.9-8.6s0-14.2 0-21.3v-2.8l-4.7-.2v-.6l1.6-.4c5.1-.4 8.6-2.8 10.2-7.8a6.2 6.2 0 0 1 1.4-1.9l.7.3v9.4h6.9v.9l-6.8.3v11.3c0 5.3 0 10.5.2 15.8.1 1.3 1 3.5 1.8 3.6s3.2-.7 4.7-1.3.8-.6 1.2-.9z"/></g></svg>