<svg viewBox="0 0 370.8 142.9" xmlns="http://www.w3.org/2000/svg"><g fill="#08ffe1"><path d="m71.4 0a71.5 71.5 0 1 0 71.5 71.4 71.4 71.4 0 0 0 -71.5-71.4zm35.6 110.2a8 8 0 0 1 -2.2 4.4 11.2 11.2 0 0 1 -4 1.4h-.8c-.3.1-.6-.1-.8.1h-53.6a10.7 10.7 0 0 1 -8.7-5.1 11.2 11.2 0 0 1 -1.5-6.9c0-2.7 1.6-4.5 3-6.5l2.1-2.8 3.5-4.7 15.3-21.3.3-.4 4-5.4 10.5-14.6.4-.6h-30.1a13.1 13.1 0 0 1 -4.8-.8 6.1 6.1 0 0 1 -3.5-3.7 19.8 19.8 0 0 1 -.8-6v-1.7c.2-.2 0-.4.1-.6a13.4 13.4 0 0 1 1-4.5c.8-2.2 2.6-3.1 4.7-3.6l2-.3h51.4a11.9 11.9 0 0 1 7.7 2.7 9.5 9.5 0 0 1 3.3 5.7 12.8 12.8 0 0 1 0 5.5 11.1 11.1 0 0 1 -2.2 3.8l-5.5 7.7-5.9 8.1c-8.3 11.6-16.7 23.1-25 34.6l-.3.5h29.7a24.7 24.7 0 0 1 5.4.5 6.6 6.6 0 0 1 5.5 5.7 22.2 22.2 0 0 1 -.2 8.8z"/><path d="m168.9 94.2 33.3-42.3h-32.8v-10.1h46.6v10.1l-33.5 42.3h34v10h-47.6z"/><path d="m231 41.2a6.5 6.5 0 0 1 6.8 6.4c0 3.6-2.9 6.3-6.8 6.3a6.4 6.4 0 1 1 0-12.7zm-5.2 20.7h10.5v42.3h-10.5z"/><path d="m248.7 37.6h10.5v66.6h-10.5z"/><path d="m271.6 37.6h10.5v66.6h-10.5z"/><path d="m302.7 86.8c.7 6.2 5.5 10 11.4 10s8.7-2.5 11.4-5.7l7.5 5.7a21.8 21.8 0 0 1 -17.8 8.4c-12.8 0-23-8.8-23-22.1s10.2-22.2 23-22.2 19.8 8.2 19.8 22.9v3zm21.7-8c-.1-6.1-4.1-10-10.7-10s-10.2 4-11 10z"/><path d="m339.9 70.9v-9h8.7v-12.2h10.6v12.2h11.6v9h-11.6v18.5c0 4.2 1.2 6.9 5.9 6.9 1.8 0 4.4-.4 5.7-1.4v8.9c-2.2 1.1-5.9 1.4-8.4 1.4-11.1 0-13.8-5-13.8-14.9v-19.4z"/></g></svg>